<svg width="42" height="42" viewBox="0 0 42 42" fill="none" xmlns="http://www.w3.org/2000/svg">
<path d="M27.4965 29.3527L12.6473 14.5035C12.14 13.9961 12.14 13.1547 12.6473 12.6473C13.1546 12.14 13.9961 12.14 14.5035 12.6473L29.3527 27.4966C29.86 28.0039 29.86 28.8454 29.3527 29.3527C28.8454 29.8601 28.0039 29.8601 27.4965 29.3527Z" fill="#979797"/>
<path d="M12.6473 29.3527C12.14 28.8454 12.14 28.0039 12.6473 27.4966L27.4965 12.6473C28.0039 12.14 28.8454 12.14 29.3527 12.6473C29.86 13.1547 29.86 13.9961 29.3527 14.5035L14.5035 29.3527C13.9961 29.8601 13.1546 29.8601 12.6473 29.3527Z" fill="#979797"/>
</svg>
