<svg width="219" height="5" viewBox="0 0 219 5" fill="none" xmlns="http://www.w3.org/2000/svg">
<mask id="mask0_35_2261" style="mask-type:alpha" maskUnits="userSpaceOnUse" x="0" y="0" width="219" height="5">
<rect width="219" height="5" fill="#C4C4C4"/>
</mask>
<g mask="url(#mask0_35_2261)">
<path d="M32.8945 -1.0575L33.4297 -1.1234L32.3882 -1.21789L32.8875 -1.28706C33.3881 -1.28643 34.0368 -1.18279 34.3898 -1.23786C34.4329 -1.29117 33.8877 -1.30828 33.7486 -1.35076C33.6255 -1.39431 33.5251 -1.43756 33.4484 -1.48002C33.7211 -1.47956 34.0208 -1.46929 34.3299 -1.44982C34.7456 -1.418 35.1534 -1.40254 35.5082 -1.40513C36.2337 -1.39654 36.9346 -1.40511 37.7234 -1.40322L37.461 -1.53154L38.4776 -1.50152C38.5853 -1.49175 38.7138 -1.50747 38.8196 -1.49537C39.7007 -1.39305 40.0735 -1.44881 40.4964 -1.49504C40.5831 -1.507 40.6876 -1.51594 40.807 -1.5216C41.9823 -1.49709 43.0421 -1.35367 44.1006 -1.28004C44.2998 -1.26124 44.4908 -1.23711 44.6602 -1.20936C45.0284 -1.15541 45.4379 -1.11136 45.8513 -1.08125C46.2647 -1.05113 46.6688 -1.03591 47.0266 -1.03697C47.818 -1.03817 48.712 -1.00248 49.6223 -0.933377C49.8929 -0.910614 50.1638 -0.895599 50.4176 -0.889285C50.6713 -0.882971 50.9025 -0.885497 51.0961 -0.896707L51.7115 -0.823458C51.9783 -0.85318 52.3166 -0.869489 52.7058 -0.87139C53.095 -0.873293 53.5271 -0.86075 53.9758 -0.834524C54.4539 -0.806075 54.9396 -0.786896 55.4357 -0.756817C56.4606 -0.699312 57.4579 -0.664145 58.3969 -0.652405C59.7952 -0.617617 61.1614 -0.590719 62.572 -0.547347C63.4545 -0.526412 64.3143 -0.514897 65.1463 -0.512864C66.143 -0.504675 67.2211 -0.465033 68.3286 -0.395852C68.2761 -0.330944 67.7905 -0.350119 67.4645 -0.352316C66.4131 -0.363104 65.3369 -0.39106 64.2552 -0.412061C63.7679 -0.420259 63.294 -0.423364 62.8362 -0.421353C62.071 -0.424044 61.2643 -0.441339 60.4299 -0.472943C59.1119 -0.507717 57.8359 -0.524433 56.6151 -0.52292C56.5194 -0.520349 56.4317 -0.515793 56.3535 -0.509329C56.3372 -0.503729 56.334 -0.496668 56.3442 -0.488825C56.3543 -0.480981 56.3776 -0.472613 56.4117 -0.464527C56.4458 -0.45644 56.4895 -0.448906 56.5388 -0.442641C56.5881 -0.436377 56.6412 -0.431592 56.6932 -0.428749C57.178 -0.384761 57.6988 -0.337517 58.156 -0.33087C58.1737 -0.330374 58.1925 -0.329239 58.2112 -0.327548C58.2298 -0.325858 58.2478 -0.323654 58.2638 -0.321095C59.2874 -0.228232 60.129 -0.243946 60.9264 -0.228838C62.2502 -0.188004 63.5264 -0.168931 64.7356 -0.171906C64.9183 -0.171703 65.1156 -0.166395 65.3204 -0.156173C66.5868 -0.114736 67.7711 -0.110101 68.8175 -0.142479C69.2483 -0.150682 69.6487 -0.169096 70.1116 -0.169404C70.3967 -0.170671 70.6448 -0.182423 70.8411 -0.203954C71.0374 -0.225485 71.1778 -0.256351 71.2539 -0.294697C71.4491 -0.274508 71.6475 -0.256516 71.8465 -0.240936C71.9653 -0.232027 72.0793 -0.22966 72.1654 -0.234322C72.2514 -0.238984 72.3032 -0.250326 72.3102 -0.266053C72.3458 -0.310098 72.0746 -0.332216 71.8392 -0.351077C71.9812 -0.360523 72.141 -0.366081 72.3152 -0.367615C73.2959 -0.377679 74.3477 -0.365801 75.4479 -0.33224C76.3021 -0.29207 76.984 -0.324766 77.8827 -0.268118C77.9904 -0.258342 78.0791 -0.27269 78.1783 -0.276134C78.4369 -0.294276 78.759 -0.298353 79.1168 -0.28801C79.4745 -0.277668 79.8571 -0.253217 80.2314 -0.216779C80.6975 -0.31633 81.7042 -0.202602 82.4477 -0.192381C82.6766 -0.141754 82.4139 -0.150655 82.4027 -0.136746C82.3914 -0.122837 82.4027 -0.136749 82.3129 -0.144895C81.5705 -0.0731989 80.5536 -0.0575651 79.4046 -0.100191C79.1921 -0.100014 78.9896 -0.0967482 78.7991 -0.0904242C78.5105 -0.0814736 78.1852 -0.0823675 77.8374 -0.0930662C77.4573 -0.100925 77.1082 -0.0971927 76.8069 -0.0820506C76.6335 -0.0822972 76.4869 -0.0747116 76.3806 -0.0599926C76.2743 -0.045274 76.2119 -0.0238975 76.199 0.0021477C76.3148 0.0222271 76.4432 0.0405991 76.5791 0.056536C77.2889 0.11946 77.9967 0.145506 78.5633 0.129549C79.5493 0.102055 80.7228 0.128885 81.7713 0.119499C82.4801 0.115697 83.2343 0.126527 84.0197 0.151789C84.0197 0.151789 83.9991 0.177288 83.9972 0.179607C84.0901 0.190647 84.1877 0.199505 84.2846 0.205674C84.2846 0.205674 84.2846 0.205674 84.2939 0.194084C84.2509 0.182953 84.1925 0.172482 84.1256 0.163883L83.8921 0.142703C84.0508 0.137191 84.1991 0.120781 84.3644 0.130807C84.7129 0.149435 85.0459 0.157299 85.3434 0.153931C85.641 0.150565 85.8969 0.136034 86.0958 0.111214C86.4485 0.0794021 86.887 0.0649358 87.3831 0.0687483C87.7634 0.0652756 88.1298 0.0578114 88.4807 0.0463923C88.4807 0.0463923 88.5032 0.0185772 88.6694 0.00379295C88.512 -0.0144418 88.3479 -0.0293318 88.1846 -0.0401933C87.474 -0.0673304 86.7616 -0.0921494 86.0634 -0.110703C85.8062 -0.112706 85.5644 -0.109598 85.3427 -0.101437C84.7284 -0.0918873 84.0382 -0.105441 83.3124 -0.141309C83.3124 -0.141309 83.1687 -0.154341 83.0969 -0.160858C83.3006 -0.222005 84.0028 -0.16079 84.2869 -0.2022C84.4597 -0.201446 84.764 -0.196239 84.7535 -0.207141C84.7298 -0.221689 84.727 -0.235203 84.7452 -0.246716C84.7635 -0.258228 84.8023 -0.267453 84.859 -0.273728C84.9157 -0.280004 84.9887 -0.283176 85.073 -0.283015C85.1572 -0.282853 85.2506 -0.279362 85.3464 -0.272795C86.1457 -0.237268 86.8986 -0.227388 87.5589 -0.243761C87.8093 -0.243445 88.0899 -0.232915 88.3384 -0.230281C88.4905 -0.227108 88.6293 -0.228873 88.7473 -0.235478C89.3477 -0.284121 90.1554 -0.287673 91.0494 -0.245602C91.4814 -0.230476 91.8852 -0.228453 92.2397 -0.239637C92.4919 -0.241639 92.5988 -0.207054 92.7784 -0.190763L93.541 -0.15642L92.5616 -0.113386C92.771 -0.0147678 92.9374 0.0177503 93.2794 0.0238938C93.7784 0.0331719 94.2642 0.0373636 94.7343 0.0364428C95.0819 0.035632 95.3689 0.014394 95.8396 0.0521164C95.9228 0.0582693 96.0028 0.0602603 96.0663 0.0577562C96.6175 0.0242668 97.2812 0.0165811 98.0122 0.0352235C98.3906 -0.027488 99.0353 0.0334844 99.6316 0.0826109C99.8241 0.0353728 99.4753 0.013688 99.2674 -0.0151345C99.7662 -0.0121842 100.269 -0.0138689 100.784 -0.00697098C100.938 -0.00948211 101.115 -0.00518662 101.301 0.00557728C101.486 0.0163412 101.674 0.0332782 101.851 0.0550659C101.938 0.0691432 102.042 0.0797381 102.142 0.0846505C102.242 0.089563 102.33 0.0884168 102.389 0.0814499C102.656 0.0609026 103.084 0.0798276 103.305 0.0451205C103.384 0.0371381 103.496 0.0360239 103.622 0.0419723C103.748 0.0479202 103.879 0.0605464 103.992 0.0775863C103.868 0.0829028 103.758 0.0912749 103.664 0.102518C103.326 0.139041 103.45 0.200067 103.879 0.288789C104.538 0.28391 105.212 0.285296 105.823 0.268574C106.164 0.253564 106.581 0.258256 107.028 0.282124C107.476 0.305992 107.935 0.34809 108.355 0.403683C108.507 0.425061 108.68 0.439866 108.84 0.44516C109 0.450456 109.135 0.445852 109.218 0.43226C109.27 0.416542 109.286 0.396649 109.265 0.374307L108.834 0.335208C108.834 0.335208 108.851 0.314345 108.855 0.309709L109.474 0.306203C109.802 0.306081 110.144 0.312227 110.454 0.310476C110.909 0.298833 111.429 0.305323 111.981 0.329543C112.49 0.354379 112.99 0.373151 113.477 0.385696C113.949 0.398607 114.29 0.357445 114.739 0.350872C115.078 0.345917 115.452 0.351212 115.845 0.36655C116.523 0.393754 117.146 0.393805 117.656 0.366697C118.251 0.512748 118.541 0.536495 119.093 0.49703L119.353 0.485756L119.424 0.517082L119.622 0.510193C119.993 0.504057 120.365 0.497924 120.752 0.495736C121.29 0.50929 121.872 0.545756 122.44 0.601573C122.547 0.611348 122.694 0.64456 122.789 0.670562C122.883 0.696564 123.09 0.775006 123.241 0.82607C123.076 0.863347 122.893 0.898993 122.762 0.941846C122.749 0.949167 122.75 0.957897 122.766 0.967334C122.781 0.976771 122.811 0.986654 122.852 0.996184C122.893 1.00572 122.944 1.01463 123.002 1.02221C123.06 1.02979 123.122 1.03583 123.184 1.03984C123.304 1.04848 123.424 1.05425 123.536 1.05689C124.091 1.06145 124.622 1.05806 125.125 1.04676C125.309 1.03082 125.56 1.0293 125.839 1.04246C126.118 1.05561 126.409 1.08269 126.666 1.11939C127.324 1.09736 128.088 1.10386 128.906 1.13846C129.771 1.11742 130.816 1.15997 131.625 1.11387C131.606 1.13705 131.689 1.17696 131.806 1.19996C131.99 1.23489 132.198 1.26726 132.422 1.2957L134.131 1.35123C134.195 1.37978 134.275 1.40869 134.37 1.43757C134.435 1.46038 134.548 1.4827 134.685 1.4998C134.823 1.5169 134.973 1.52744 135.105 1.52918C135.446 1.53764 135.731 1.51872 136.136 1.56546C135.512 1.60965 134.669 1.60378 133.759 1.5489C132.904 1.50716 132.082 1.4863 131.323 1.48709C131.072 1.48677 130.743 1.48921 130.664 1.51446C130.491 1.58582 130.038 1.57454 129.508 1.56138C129.093 1.54697 128.713 1.54858 128.401 1.5661C128.088 1.58361 127.852 1.61651 127.711 1.6621C127.676 1.70615 127.761 1.74374 128.126 1.76937L129.643 1.87214C129.866 1.85893 130.078 1.84329 130.278 1.82528C130.615 1.80137 131.03 1.79481 131.493 1.8061C131.955 1.8174 132.451 1.84625 132.943 1.89041C133.195 1.91322 133.446 1.93603 133.628 1.92519C133.788 1.91274 133.936 1.89784 134.069 1.88058C134.096 1.86902 134.107 1.85572 134.101 1.84118C134.198 1.84794 134.295 1.85673 134.388 1.86724C135.137 1.98993 135.717 1.9878 136.244 1.95598C136.387 1.94652 136.495 1.93149 136.64 1.91971C136.784 1.90793 136.835 1.89265 136.967 1.8971C138.014 1.93733 138.315 1.80294 139.197 1.80834C139.24 1.80309 139.267 1.79524 139.275 1.78552C139.283 1.7758 139.272 1.76451 139.242 1.75271C139.18 1.74204 139.108 1.73288 139.033 1.72604C138.957 1.71921 138.881 1.71493 138.811 1.71361C138.405 1.69636 138.047 1.70165 137.797 1.72857C137.62 1.73957 137.433 1.74833 137.236 1.75481L136.352 1.5602C137.208 1.57804 138.018 1.57792 138.762 1.55985C138.925 1.5497 139.2 1.56719 139.428 1.57051L141.11 1.5887C141.456 1.59021 141.75 1.5597 142.232 1.63082C142.232 1.63082 142.551 1.64228 142.636 1.63257C142.721 1.62286 143.097 1.56247 143.322 1.52313C143.583 1.53434 143.944 1.56461 144.106 1.55446C144.39 1.52954 144.636 1.49758 144.839 1.45918L145.854 1.51401C145.853 1.56272 145.816 1.60854 145.744 1.65078C145.665 1.69151 145.667 1.74041 145.752 1.79348C145.836 1.84654 146 1.90226 146.229 1.95609L147.232 2.24118C147.396 2.26027 147.57 2.27312 147.732 2.27799C147.894 2.28285 148.035 2.2795 148.136 2.26838C148.567 2.23536 149.051 2.20956 149.482 2.17654C150.039 2.22705 149.896 2.30862 150.3 2.38018L151.611 2.49911C151.811 2.60931 152.015 2.71489 151.407 2.75178C151.286 2.75823 151.368 2.80047 151.257 2.81782C151.73 2.90053 152.25 2.92528 152.729 2.97623C152.918 3.01286 153.076 3.05164 153.195 3.0907C153.326 3.1495 153.592 3.20956 153.935 3.25792C154.279 3.30628 154.672 3.33905 155.029 3.34916C155.63 3.38012 156.244 3.42662 156.846 3.48658C157.051 3.50743 157.262 3.52262 157.465 3.53113C157.668 3.53964 157.857 3.54126 158.02 3.5359C158.602 3.52646 159.095 3.494 159.466 3.44062C159.833 3.39533 160.328 3.3735 160.905 3.37711C161.893 3.46671 162.092 3.60173 162.69 3.72066L161.658 3.73399C161.62 3.78035 161.688 3.83881 161.265 3.83774C160.842 3.83667 161.057 3.88103 161.194 3.92583C161.242 3.94836 161.337 3.97154 161.461 3.99145C161.585 4.01135 161.732 4.02675 161.877 4.03504L162.755 4.09238C163.067 4.1142 163.369 4.12352 163.627 4.11931C163.886 4.1151 164.091 4.09753 164.22 4.06853C164.369 4.04098 164.575 4.02235 164.824 4.01377C165.141 3.9913 165.403 3.95789 165.598 3.91479L166.839 3.97758C166.891 3.93427 167.062 3.9039 167.321 3.89161C167.58 3.87932 167.913 3.88586 168.262 3.91012L169.098 3.94866C170.028 3.99072 170.232 3.97687 170.504 3.85476L169.389 3.63665C169.551 3.5792 169.708 3.5287 169.864 3.47821C169.586 3.40635 169.216 3.33838 168.79 3.28121C168.392 3.21979 167.984 3.16029 167.565 3.10295C167.112 3.04437 166.632 2.99343 166.069 2.92738C165.971 2.90602 165.828 2.86817 165.645 2.8317C165.463 2.79627 165.272 2.76153 165.074 2.72763C165.112 2.68127 165.145 2.63954 165.073 2.58572C165.42 2.60289 165.779 2.63293 166.116 2.67312C166.454 2.71331 166.76 2.76239 167.007 2.81593C167.049 2.82543 167.1 2.83435 167.157 2.84209C167.214 2.84983 167.275 2.85621 167.337 2.8608C167.947 2.8937 168.238 2.96243 168.536 3.0467C168.737 3.08978 168.996 3.12804 169.277 3.15616C169.815 3.20504 170.343 3.26782 170.858 3.32203C171.016 3.34009 171.179 3.35495 171.343 3.36601C171.881 3.40117 172.423 3.45034 172.941 3.51101C173.11 3.52643 173.272 3.54684 173.414 3.57052C173.556 3.59421 173.673 3.62049 173.756 3.64716C173.628 3.67639 173.559 3.71328 173.553 3.75561C173.53 3.78343 173.908 3.84014 174.087 3.88124C174.266 3.92235 173.915 3.90298 173.796 3.90711C173.308 3.91506 173.217 3.93173 173.51 4.02295C173.608 4.05164 173.672 4.08034 173.7 4.10728C173.728 4.13421 173.719 4.1588 173.672 4.17953C173.603 4.2653 173.392 4.33572 173.247 4.41961C173.472 4.47488 173.848 4.5339 173.889 4.60231C173.909 4.61749 173.951 4.63357 174.011 4.64939C174.072 4.66521 174.15 4.68038 174.239 4.69379C174.476 4.72275 174.691 4.75738 174.868 4.79499C175.044 4.83261 175.178 4.8722 175.259 4.91071C175.285 4.92664 175.349 4.94353 175.438 4.95801C175.526 4.97249 175.632 4.98349 175.736 4.98878C175.859 4.99529 175.969 4.99443 176.044 4.98639C176.119 4.97834 176.152 4.96372 176.137 4.94555C176.14 4.91142 176.124 4.87584 176.088 4.83911C176.109 4.81361 176.129 4.78811 176.048 4.74588C176.416 4.76129 176.802 4.79218 177.165 4.83518C177.528 4.87819 177.853 4.93167 178.106 4.98981C178.385 5.04996 178.642 5.11312 178.951 5.18348C178.888 5.2623 178.888 5.2623 179.546 5.40165L183.038 5.4696L183.753 5.5619C184.421 5.64235 184.58 5.63684 184.999 5.59525L185.281 5.55615C185.873 5.60991 186.556 5.67182 186.927 5.57108C187.047 5.63674 187.125 5.6588 187.098 5.66876C186.921 5.76566 186.614 5.84788 186.188 5.91216C186.079 5.9272 186.003 5.95012 185.877 5.96353C185.469 6.0392 185.374 6.15612 185.612 6.29039C185.73 6.3498 185.902 6.41065 186.121 6.47096C185.8 6.55465 185.374 6.624 184.856 6.67714C184.416 6.71825 184.053 6.7733 183.779 6.84071C183.533 6.90869 183.164 6.95978 182.693 6.99107C182.455 7.00437 182.281 7.03062 182.189 7.06719C182.161 7.1662 182.224 7.2722 182.377 7.38284C182.405 7.4165 182.487 7.45287 182.615 7.48908C182.742 7.52529 182.913 7.56036 183.114 7.59154C183.114 7.59154 183.21 7.61522 183.256 7.62938C183.295 7.74928 183.15 7.85495 182.832 7.93926C182.78 7.96319 182.673 7.98047 182.524 7.98925C182.374 7.99802 182.187 7.99796 181.982 7.98907C181.551 7.97478 181.147 7.97302 180.73 7.96499C180.28 7.95364 179.883 7.96259 179.582 7.99089C179.281 8.01919 179.087 8.06579 179.019 8.1258C179.014 8.1428 179.001 8.15907 178.98 8.17448C178.967 8.18244 178.96 8.19097 178.959 8.19998L179.918 8.39647L178.833 8.47472C178.769 8.55353 179.29 8.60078 179.551 8.6593L179.39 8.69194C179.182 8.71042 178.902 8.67508 178.649 8.65459L178.397 8.63178L178.367 8.66887C178.211 8.71937 177.64 8.6626 177.417 8.69963C177.195 8.73665 177.354 8.77844 177.687 8.81867C177.919 8.84857 178.168 8.87241 178.416 8.8884C178.663 8.90439 178.903 8.91211 179.116 8.91098C179.244 8.90701 179.349 8.89797 179.427 8.88441C179.877 8.82665 180.375 8.77699 180.916 8.73581C181.33 8.69883 181.85 8.6831 182.437 8.68972C182.61 8.68693 182.817 8.69569 183.024 8.71446C183.231 8.73323 183.424 8.76081 183.568 8.79236L183.873 8.79756C183.873 8.79756 184.039 8.83008 184.016 8.83541C183.9 8.93174 184.034 9.04953 184.399 9.1713L184.082 9.18232C183.628 9.17104 183.916 9.2444 183.848 9.28056C183.526 9.27372 183.107 9.24321 182.955 9.28907L182.726 9.28575L182.816 9.29389L182.924 9.27886L183.351 9.3474C183.149 9.35893 183.002 9.37302 182.824 9.37922C182.725 9.38462 182.647 9.39415 182.593 9.40724C182.539 9.42033 182.512 9.43672 182.512 9.45541C182.512 9.48417 182.459 9.50837 182.357 9.52571C182.255 9.54305 182.108 9.55294 181.93 9.55445C181.718 9.55508 181.596 9.58634 181.471 9.59743L182.013 9.7859C182.013 9.7859 181.744 9.76146 181.89 9.79467L181.909 9.77149L182.237 9.81867C182.473 9.86002 182.639 9.87004 182.778 9.84041C182.918 9.81078 182.886 9.85019 182.953 9.83885C182.929 9.86899 182.777 9.89004 182.647 9.90808C182.496 9.92225 182.326 9.93268 182.139 9.93921C182.476 10.0717 182.492 10.0757 182.001 10.1108C181.51 10.1458 181.679 10.1985 181.268 10.206C180.857 10.2136 181.324 10.3032 181.599 10.3207C181.803 10.3322 182.011 10.3501 182.209 10.3732C182.406 10.3963 182.589 10.424 182.744 10.4544L182.662 10.5564C182.541 10.548 182.42 10.537 182.303 10.5238C181.904 10.4678 181.542 10.4151 181.188 10.4476L181.357 10.5251L180.121 10.4802C180.153 10.5383 180.341 10.6044 180.646 10.6647C180.6 10.6978 180.572 10.7327 180.562 10.769C180.541 10.7945 180.419 10.7785 180.34 10.7812C180.057 10.7855 179.825 10.8028 179.664 10.8316C179.503 10.8603 179.418 10.8997 179.416 10.9463C179.384 10.9857 179.819 11.0674 180.091 11.0648C180.771 11.0726 181.505 11.1029 182.255 11.1541C182.713 11.1607 182.777 11.0571 183.529 11.1278C183.544 11.1757 183.448 11.2144 183.255 11.2382C183.062 11.262 182.782 11.2695 182.459 11.2596C182.643 11.3659 183.661 11.3936 183.706 11.5047C183.453 11.4968 183.182 11.4784 182.92 11.4511C182.658 11.4239 182.414 11.3888 182.213 11.3493C182.17 11.3396 182.115 11.3306 182.054 11.3232C181.994 11.3158 181.929 11.3103 181.866 11.3071C181.804 11.3039 181.745 11.3031 181.695 11.3048C181.646 11.3066 181.608 11.3108 181.584 11.3171C181.725 11.3572 181.88 11.4037 182.057 11.4471C182.234 11.4905 182.276 11.5093 182.404 11.5184C183.356 11.6047 183.808 11.7602 184.631 11.8623C184.847 11.8819 184.874 11.944 184.687 11.937C184.509 11.93 184.348 11.9309 184.221 11.9397C184.095 11.9484 184.009 11.9647 183.972 11.9866C183.834 12.0122 183.662 12.0326 183.46 12.0472C184.305 12.2068 185.312 12.3478 186.386 12.457C186.59 12.4786 186.802 12.4917 186.992 12.4945C187.592 12.4947 188.229 12.5073 188.889 12.5323C189.123 12.5391 189.34 12.5384 189.527 12.5304C190.14 12.5113 190.627 12.553 191.071 12.6705L191.807 12.8567C191.783 12.8868 191.659 12.9204 191.564 12.9665L192.139 13.066L196.527 12.837L197.407 13.0587L198.67 13.0464C198.767 13.0528 198.864 13.0616 198.958 13.0724C199.213 13.1379 199.413 13.2008 199.69 13.2633C199.967 13.3258 200.462 13.3333 200.807 13.407C201.153 13.4806 201.498 13.4821 201.926 13.5258C201.966 13.5828 201.924 13.6341 201.804 13.6765C201.764 13.7252 201.547 13.7553 201.51 13.8016C201.514 13.8485 201.433 13.8883 201.275 13.9174C201.117 13.9465 200.886 13.964 200.604 13.9683C199.813 14.068 198.86 14.1391 197.773 14.1793C197.678 14.1822 197.598 14.1889 197.54 14.1991C197.482 14.2092 197.447 14.2226 197.436 14.2383C197.438 14.2838 197.365 14.3231 197.224 14.3533C197.083 14.3835 196.876 14.404 196.62 14.4131C196.552 14.4149 196.5 14.4206 196.472 14.4295C196.375 14.4352 196.304 14.4462 196.266 14.4613C196.229 14.4764 196.226 14.4952 196.257 14.5159C196.289 14.5365 196.355 14.5583 196.447 14.5791C196.54 14.6 196.658 14.6191 196.788 14.6348C196.976 14.66 197.169 14.6841 197.365 14.7071C197.354 14.721 197.159 14.7233 197.188 14.7358C197.265 14.7758 197.282 14.8133 197.24 14.8452C197.197 14.8772 197.095 14.9028 196.942 14.9201L197.991 15.2441C198.627 15.289 199.252 15.3651 199.745 15.458C199.746 15.4732 199.718 15.486 199.663 15.495C199.608 15.504 199.529 15.509 199.434 15.5094C199.178 15.516 198.936 15.5289 198.661 15.5363C198.492 15.5417 198.352 15.5538 198.248 15.5717C198.144 15.5896 198.079 15.6131 198.056 15.6406L198.671 15.7612C198.474 15.7906 198.328 15.8047 198.197 15.8227C198.271 15.8606 198.398 15.8998 198.568 15.9372C198.739 15.9747 198.948 16.0094 199.179 16.0387C199.241 16.0447 199.305 16.0491 199.366 16.0517C199.426 16.0542 199.484 16.0548 199.534 16.0534C200.01 16.0121 200.568 16.0851 201.11 16.1541C201.652 16.2232 201.946 16.2648 202.346 16.3185L203.111 16.3257C203.304 16.3511 203.477 16.381 203.615 16.413C203.754 16.445 203.853 16.4781 203.906 16.5098C203.865 16.5608 203.502 16.5329 203.286 16.5381C202.773 16.5699 202.098 16.5631 201.374 16.519C201.194 16.5027 201.01 16.5158 200.835 16.5174C200.458 16.5237 200.096 16.5341 199.75 16.5483C199.522 16.5616 199.309 16.578 199.113 16.5975C199.06 16.6624 199.887 16.7125 199.418 16.7446C199.579 16.7593 199.64 16.7797 199.723 16.7723C200.255 16.8145 200.78 16.8353 201.236 16.8324C202.111 16.8235 203.104 16.853 204.135 16.9187C205.247 16.9868 206.314 17.0153 207.248 17.0021C207.603 17.0013 208.001 17.0152 208.41 17.0428C208.893 17.081 209.373 17.105 209.818 17.1133C209.965 17.1136 210.129 17.1201 210.297 17.1323C210.465 17.1445 210.631 17.162 210.783 17.1834C210.77 17.1997 210.625 17.2114 210.657 17.2193C211.118 17.3408 211.305 17.4672 212.014 17.5913C212.499 17.6352 213.056 17.6858 213.373 17.6274C213.69 17.5691 213.576 17.519 212.945 17.3697C213.082 17.3675 213.247 17.3745 213.411 17.3894C213.575 17.4043 213.728 17.4261 213.843 17.4511L214.389 17.5628L214.881 17.6697C214.837 17.723 214.804 17.7647 214.768 17.8088C214.712 17.8555 214.774 17.9125 214.945 17.9716C215.048 18.0039 215.138 18.0362 215.214 18.0682C215.521 18.1961 215.61 18.3171 215.471 18.4174C215.204 18.5618 214.832 18.6946 214.359 18.8143C213.86 18.9307 213.587 19.0777 213.176 19.2046C212.966 19.2624 212.712 19.3142 212.415 19.3595C211.851 19.4601 211.234 19.5559 210.669 19.6589C210.104 19.7619 209.465 19.8359 208.838 19.9208C207.903 20.0215 206.893 20.1085 205.813 20.1813C205.144 20.2451 204.458 20.3073 203.839 20.3806C203.109 20.4632 202.251 20.5225 201.287 20.5571C200.436 20.5985 199.675 20.6597 199.019 20.7395C198.95 20.7481 198.896 20.7591 198.858 20.7721C198.74 20.8536 198.409 20.9109 197.916 20.9355C197.946 20.9594 197.984 20.9836 198.031 21.0081C198.099 21.0374 198.113 21.0648 198.072 21.0867C198.03 21.1086 197.934 21.1241 197.796 21.1312C197.402 21.1514 197.074 21.1856 196.828 21.2324C196.737 21.2442 196.681 21.2613 196.664 21.2823C196.647 21.3033 196.67 21.3275 196.73 21.353C196.784 21.3792 196.788 21.4033 196.741 21.4221C196.695 21.441 196.601 21.4538 196.471 21.4589C196.137 21.4836 195.78 21.5036 195.401 21.5186C194.595 21.5516 193.658 21.5512 192.645 21.5174C192.538 21.5076 192.429 21.5227 192.303 21.5113C191.588 21.4734 190.923 21.4675 190.389 21.4944C189.764 21.5048 189.11 21.5028 188.451 21.5076C187.499 21.5044 186.62 21.5243 185.839 21.5668C184.947 21.5257 184.446 21.5972 183.693 21.5986C182.998 21.6059 182.339 21.6235 181.723 21.6512C180.73 21.688 179.74 21.7201 178.76 21.7631C177.842 21.7837 176.996 21.8229 176.237 21.8801C175.946 21.906 175.42 21.8657 175.222 21.9199C175.024 21.9741 174.624 21.9677 174.301 21.9856L173.282 22.0301C173.107 22.0406 172.914 22.0473 172.707 22.05C171.759 22.0537 171.103 22.126 170.224 22.1408L170.134 22.1326C168.573 22.2402 166.786 22.2992 164.826 22.308C163.682 22.341 162.43 22.3394 161.215 22.3636C160.925 22.412 160.241 22.3524 159.878 22.3965C159.514 22.4407 158.921 22.4118 158.452 22.419C157.984 22.4263 157.526 22.4445 157.025 22.4438C156.59 22.444 156.223 22.4638 155.957 22.5012C155.35 22.5631 154.609 22.5995 153.769 22.6088C152.657 22.6248 151.606 22.6614 150.475 22.6533C150.491 22.6984 150.422 22.7368 150.274 22.7645C150.127 22.7922 149.906 22.8082 149.634 22.8109C148.425 22.8282 147.329 22.873 146.104 22.8863L145.776 22.8864L142.112 22.9123C141.125 22.9173 140.173 22.9256 139.167 22.9312C138.789 22.897 138.78 22.9559 138.519 22.9447C138.447 22.9157 138.361 22.9029 138.232 22.9186L138.204 22.9534L134.022 22.9995C132.385 23.0333 130.663 23.0434 128.87 23.0298C128.445 23.0332 128.048 23.0447 127.686 23.0642C127.35 23.0713 127 23.0744 126.637 23.0736C126.147 23.0648 125.668 23.0604 125.202 23.0603C123.977 23.0736 122.692 23.0665 121.35 23.0567C120.009 23.047 118.992 23.0643 117.798 23.063C116.99 23.0618 116.185 23.0559 115.348 23.0422C114.948 23.0358 114.456 23.0011 114.042 22.9884C113.628 22.9758 113.493 22.9759 113.438 22.9959C113.258 23.0517 112.805 23.0156 112.444 23.0101C111.738 23.0009 111.638 22.9818 111.446 22.8375L112.312 22.7917C112.524 22.7769 112.791 22.7743 113.087 22.7841C113.383 22.794 113.698 22.8159 114.001 22.8479C114.121 22.8616 114.246 22.8724 114.369 22.8797C114.492 22.8871 114.611 22.8907 114.719 22.8906C115.592 22.8827 116.454 22.8663 117.294 22.8529L117.416 22.8442L117.424 22.7155C117.313 22.7028 117.198 22.6924 117.083 22.6845L112.871 22.601C111.905 22.5805 110.901 22.5343 109.952 22.5154C109.004 22.4965 108.493 22.485 107.757 22.4655C107.446 22.4544 107.13 22.4398 106.809 22.4218C106.828 22.4094 106.838 22.3963 106.841 22.3824C106.858 22.3616 106.88 22.3337 106.744 22.3114C106.596 22.2799 106.397 22.253 106.188 22.2361C105.992 22.2249 105.802 22.2186 105.625 22.2174C104.771 22.2066 103.795 22.1386 102.906 22.0279L102.596 22.1018C101.261 22.0603 99.906 22.0195 98.5114 21.9801C98.2322 21.9693 97.9392 21.9487 97.6543 21.9197C97.349 21.892 97.0681 21.8342 96.7467 21.8026C96.4292 21.7798 96.1138 21.762 95.8065 21.7496C95.8897 21.7306 95.9994 21.7154 96.1322 21.7045C96.2628 21.7007 96.3579 21.6888 96.4038 21.6706C96.4498 21.6524 96.4441 21.6288 96.3876 21.6033C96.2881 21.5594 96.2444 21.5181 96.4607 21.5129C96.6606 21.5029 96.8035 21.4812 96.8728 21.4505C96.9421 21.4197 96.9347 21.3811 96.8517 21.3393C96.8153 21.3149 96.7896 21.2909 96.7748 21.2676L96.6849 21.2595C96.3887 21.1729 95.7972 21.1416 95.3727 21.0708C95.1723 21.0502 94.9649 21.0384 94.783 21.0372C94.3134 21.0219 93.8562 21.0153 93.3705 20.9961C93.1385 20.9873 92.8959 20.9712 92.657 20.9488C92.3158 20.9179 92.2799 20.9146 92.0818 20.8021C92.3894 20.804 92.6333 20.7872 92.7722 20.7545C92.9111 20.7217 92.9365 20.6751 92.844 20.6224C92.5902 20.5073 92.3221 20.3859 91.1739 20.3042C91.5483 20.3001 91.9087 20.2921 92.2534 20.2802C92.3538 20.2776 92.4289 20.2691 92.4687 20.2559C92.5086 20.2427 92.5113 20.2254 92.4764 20.2063C92.4416 20.1872 92.3709 20.1671 92.2738 20.1489C92.1767 20.1307 92.0578 20.1151 91.9331 20.1043C91.3271 20.0392 90.6948 19.9956 90.1073 19.9785C89.6123 19.9709 89.1655 19.9751 88.5873 19.9749L87.9049 19.913C87.9162 19.8991 87.8159 19.8801 87.8414 19.8724C88.0148 19.8011 88.2061 19.7313 88.4031 19.6547C88.0885 19.6133 87.8159 19.5633 87.6166 19.5104C87.4173 19.4576 87.2994 19.404 87.2763 19.3559C87.2593 19.3413 87.2637 19.3281 87.2893 19.3171C87.3148 19.3061 87.3609 19.2976 87.4242 19.2921C87.6038 19.2828 87.7425 19.265 87.8295 19.2401C87.9165 19.2152 87.9495 19.1839 87.9259 19.1485L87.3952 19.0183C85.7974 18.9253 84.2283 18.8589 82.717 18.8203L81.3528 18.7911C81.1882 18.7563 81.2391 18.741 81.394 18.7401C81.549 18.7392 81.9845 18.7489 82.2887 18.7541C82.5514 18.7609 82.7847 18.7564 82.966 18.741C83.1473 18.7257 83.2705 18.6999 83.3235 18.6663L82.8655 18.5178C82.888 18.4899 82.9198 18.4505 83.1683 18.4532C83.3381 18.4499 83.4631 18.4359 83.5233 18.4134C83.5835 18.3909 83.5754 18.3611 83.5001 18.329C83.4887 18.3057 83.5058 18.2845 83.5507 18.2664C83.9182 18.2649 84.2838 18.2657 84.6172 18.2586C84.7725 18.2563 84.9036 18.2477 85.0016 18.2334C85.0997 18.2191 85.1624 18.1995 85.1854 18.1758C85.1974 18.1527 85.1681 18.1265 85.0998 18.0991C85.0316 18.0717 84.9262 18.044 84.7924 18.0182C84.2698 17.9863 83.7919 17.9859 83.4633 18.0171C83.3461 18.0415 83.158 18.0549 82.9236 18.0554C82.6891 18.0559 82.4195 18.0435 82.1502 18.0199C81.8419 17.9927 81.5341 17.9807 81.2824 17.9862C81.0306 17.9916 80.8514 18.0141 80.7769 18.0496C80.4604 18.0358 80.1797 18.0253 79.9029 18.0101C79.5763 17.991 79.2675 17.9853 79.0101 17.9938C78.5981 17.9998 78.1542 17.9963 77.6884 17.9834C76.3459 17.9512 75.0014 17.9213 73.7015 17.9078C73.3576 17.904 73.0601 17.9144 72.72 17.9059C72.3799 17.8974 72.1108 17.9203 71.6854 17.8742C71.6044 17.8671 71.5229 17.8625 71.4473 17.8608C71.3717 17.8591 71.3041 17.8604 71.2499 17.8646C70.5029 17.901 69.6271 17.9062 68.6739 17.8797C67.3684 17.8733 66.0145 17.8549 64.7071 17.8508C64.3237 17.8544 63.9613 17.8639 63.6238 17.8794C63.3669 17.8888 63.0979 17.8951 62.8181 17.8984C62.6037 17.9013 62.3986 17.8927 62.4348 17.9432C62.471 17.9938 62.1497 17.9622 61.9644 17.9528C61.3281 17.9283 60.6778 17.8951 60.0207 17.8536C59.3732 17.8085 58.7389 17.7823 58.1555 17.7765C57.7342 17.7731 57.2997 17.7859 56.758 17.7169C56.7787 17.6914 56.7993 17.6659 56.9172 17.6392C56.4754 17.566 55.9714 17.503 55.4468 17.4554C54.9221 17.4078 54.392 17.377 53.9002 17.3655L53.2221 17.2269C53.0551 17.2106 52.8847 17.1987 52.7211 17.192C52.5575 17.1853 52.4042 17.1839 52.2706 17.1878C52.1673 17.1899 52.0414 17.1847 51.9161 17.1733C51.7907 17.162 51.6743 17.1451 51.5882 17.1259C51.4594 17.1015 51.3021 17.0805 51.136 17.0654C50.9699 17.0503 50.8023 17.0419 50.6544 17.0412C50.1884 17.0261 49.691 16.9913 49.2132 16.9403C49.0891 16.9104 49.0114 16.8795 48.9896 16.8515C48.9678 16.8234 49.0029 16.7994 49.0904 16.7824C49.2316 16.7523 49.3108 16.714 49.3234 16.6699C49.336 16.6257 49.2816 16.5765 49.1635 16.5253C49.103 16.4938 49.0828 16.464 49.1041 16.4378C49.1254 16.4115 49.1877 16.3892 49.2873 16.3723C49.659 16.294 49.5596 16.2501 48.9514 16.1203C48.8526 16.0987 48.7335 16.0784 48.6017 16.0609C48.4699 16.0434 48.3282 16.0289 48.1856 16.0185C47.8511 15.9973 47.5212 15.9816 47.202 15.9716C47.0224 15.9553 46.8382 15.9684 46.6313 15.9621C45.5967 15.9304 45.4453 15.8794 45.1102 15.7694L44.866 15.69C44.4131 15.6257 43.9179 15.5723 43.4158 15.5336C42.9138 15.4949 42.4175 15.472 41.9628 15.4664C41.782 15.466 41.5742 15.455 41.3712 15.4351C40.7106 15.3744 40.0415 15.3323 39.4084 15.3118C39.0139 15.3002 38.5886 15.2703 38.1837 15.2256C37.7787 15.1809 37.4113 15.1234 37.1256 15.0599C36.8689 15.0027 36.5331 14.9514 36.1649 14.913C35.7339 14.8739 35.694 14.828 35.9347 14.7926C36.1754 14.7572 36.5785 14.7117 36.9363 14.6745C37.0608 14.6618 37.1379 14.6413 37.1591 14.6151C37.1803 14.5889 37.1447 14.5581 37.0563 14.5261C36.9996 14.4714 36.9897 14.4195 37.027 14.3717C37.047 14.3518 37.0332 14.329 36.9867 14.3048C36.9401 14.2806 36.8618 14.2556 36.7571 14.2315C36.6524 14.2074 36.5237 14.1847 36.3797 14.165C36.2357 14.1452 36.0796 14.1289 35.9222 14.1171C35.2577 14.0569 34.6112 13.9982 33.9337 13.9542C33.6497 13.9334 33.366 13.9077 33.0896 13.8776C32.5238 13.8032 31.9185 13.7415 31.3088 13.6961C31.0195 13.6758 30.7366 13.6403 30.5214 13.5973C29.8426 13.4814 29.2171 13.3596 28.6563 13.234C28.5211 13.1951 28.3443 13.1571 28.1368 13.1224C27.9294 13.0877 27.6958 13.0572 27.4507 13.0326C27.2532 13.0147 27.0924 12.9752 26.9401 12.9489C26.8295 12.8881 26.8177 12.8319 26.9058 12.7855C26.9939 12.7391 27.1791 12.704 27.4439 12.6836C27.6951 12.6591 27.9301 12.6307 28.1472 12.6006C28.4089 12.5763 28.72 12.5617 29.0689 12.5573C29.4822 12.5443 29.7878 12.507 29.9459 12.4503C28.8146 12.3476 27.7387 12.2002 26.747 12.2347L25.9935 12.1415C26.0235 12.1044 26.0498 12.0719 26.0741 12.0418C26.2533 11.9869 26.3093 11.9177 26.2373 11.8401C26.1779 11.8025 26.1833 11.7684 26.2528 11.741C26.3223 11.7137 26.4535 11.6941 26.6332 11.6844C27.6972 11.5844 28.9277 11.5168 29.9255 11.4033C30.2384 11.382 30.6046 11.3723 31.0088 11.3747C31.3999 11.3679 31.3835 11.3166 30.9335 11.2534C30.6809 11.2204 30.4235 11.1887 30.1621 11.1585C29.0096 11.1535 28.5401 11.305 27.2249 11.2628L26.6153 11.0632C26.4505 11.0601 26.2904 11.0589 26.1363 11.0596L23.9311 11.1407C23.7474 11.1447 23.6044 11.1586 23.5184 11.1807C23.4323 11.2028 23.4067 11.2323 23.4444 11.2657C23.4593 11.3066 23.4289 11.3442 23.3543 11.377C23.3062 11.4 23.337 11.4305 23.4399 11.4619C23.6717 11.5327 23.3742 11.543 23.1864 11.5608C23.1383 11.5626 23.083 11.5624 23.0234 11.5603C22.9639 11.5582 22.9014 11.5542 22.8396 11.5486C22.7778 11.543 22.7179 11.5359 22.6634 11.5276C22.6088 11.5194 22.5608 11.5102 22.5219 11.5005C22.1909 11.4332 21.9014 11.3621 21.576 11.2878C21.807 11.2167 21.5352 11.1 21.8957 11.0356C21.936 11.0228 21.9521 11.0071 21.9431 10.9896C21.934 10.9721 21.9 10.9531 21.8431 10.9338C21.6963 10.884 21.6264 10.8354 21.6404 10.793C21.6544 10.7506 21.7519 10.7158 21.9229 10.6922L21.9435 10.6667C21.4924 10.581 21.612 10.5048 21.4348 10.4141L21.0008 10.3548C19.9212 10.212 19.9193 10.2144 18.9898 10.2196C18.8024 10.1653 19.0405 10.157 19.219 10.1508L20.714 10.0899C21.6915 10.0492 22.6974 10.021 23.7893 10.0056C24.8812 9.99018 26.0986 9.93888 27.2272 9.90193C27.2843 9.89906 27.3279 9.89341 27.3545 9.88543C27.3811 9.87745 27.3898 9.86738 27.38 9.85607C27.3351 9.84383 27.2764 9.83203 27.2081 9.82153C27.1399 9.81103 27.0639 9.80211 26.9857 9.79541C26.6265 9.76283 26.258 9.74184 25.8752 9.71458L25.1617 9.66727L24.9422 9.60505C24.7994 9.56721 24.7017 9.52103 24.5117 9.49384C24.3551 9.47355 24.1851 9.45816 24.0194 9.44925C23.8537 9.44035 23.6984 9.43826 23.5696 9.4432C23.2126 9.45561 22.8896 9.47358 22.5487 9.48993C22.2078 9.50628 22.0199 9.52407 21.7243 9.53209C21.1236 9.53573 20.5432 9.54537 19.9854 9.56095C19.5155 9.59782 19.081 9.64151 18.6844 9.69176C18.437 9.71162 18.2057 9.73542 17.7833 9.70954C17.5829 9.68607 17.41 9.65524 17.2954 9.62252C17.1807 9.5898 17.1316 9.5573 17.1569 9.53078C17.1795 9.51 17.2437 9.49355 17.3433 9.483C17.4429 9.47244 17.5747 9.46812 17.7261 9.47045C18.1501 9.46663 18.5422 9.45377 18.8945 9.43212C19.3848 9.39291 19.9817 9.376 20.6503 9.3824C20.877 9.38804 21.029 9.36699 21.2273 9.3601C21.4257 9.35321 21.5937 9.33611 21.8148 9.3487C22.5018 9.38116 22.8312 9.33142 23.2428 9.2991C23.3822 9.28477 23.4685 9.2616 23.4924 9.23216C23.5162 9.2027 23.4766 9.16811 23.3779 9.13219C23.1879 9.06064 22.9555 8.98868 22.6842 8.91747C22.5446 8.88246 22.3658 8.84922 22.1617 8.82034C21.9577 8.79147 21.7339 8.76775 21.508 8.75105C21.3729 8.70723 21.3008 8.66414 21.2982 8.62568C21.2957 8.58722 21.3628 8.55459 21.4936 8.53076C21.8267 8.47638 22.122 8.42106 22.8685 8.45146C23.2194 8.46306 23.5497 8.46529 23.8462 8.45805C24.5039 8.44812 25.2624 8.46984 26.0505 8.52116C26.2544 8.53431 26.4548 8.54328 26.6458 8.5478C28.0082 8.57933 29.3062 8.59507 30.608 8.60617C31.2976 8.61151 31.9929 8.60989 32.7128 8.62543C34.4011 8.65916 35.938 8.64182 37.5675 8.6528C38.421 8.65845 39.1849 8.63574 39.8192 8.58585C39.9428 8.56913 40.0489 8.54961 40.1363 8.52753C39.7159 8.46957 39.2542 8.42368 38.7954 8.39425C38.3365 8.36482 37.8959 8.35284 37.5158 8.35946C37.3068 8.37569 37.0366 8.37865 36.7355 8.36803C36.4344 8.35741 36.1141 8.33361 35.8103 8.2993L36.6935 8.27988C37.2791 8.27081 37.8789 8.26799 38.4485 8.25497C39.3533 8.23255 40.1919 8.19665 41.1289 8.18213C41.8854 8.16877 42.5624 8.13463 43.1386 8.08078C43.5548 8.0415 44.0302 8.01365 44.5551 7.99778C44.9282 7.98933 44.9282 7.98933 45.1667 7.90895C44.9774 7.85694 44.7327 7.84967 44.5022 7.84867C43.1203 7.81595 41.8052 7.81021 40.5837 7.83158C39.9674 7.83347 39.4206 7.85552 38.9697 7.89666C38.8593 7.91401 38.5767 7.9058 38.35 7.90016C37.6392 7.89158 36.9598 7.89407 36.32 7.90759C35.4354 7.93014 34.4503 7.9248 33.4028 7.89177C33.2042 7.85135 33.4328 7.85468 33.444 7.84077C34.2553 7.81484 35.0506 7.78497 35.878 7.76298C36.1041 7.75515 36.3459 7.75127 36.6006 7.7514C37.5512 7.76503 38.3434 7.72727 38.8661 7.64341C38.8924 7.61096 39.2363 7.61479 39.3882 7.59374C39.463 7.57552 39.5128 7.55406 39.5362 7.53002C39.3148 7.47012 39.0644 7.4698 38.8717 7.46974C38.3125 7.47642 37.7745 7.4891 37.2604 7.50769C36.7825 7.52539 36.2534 7.53012 35.6876 7.52176C35.27 7.51374 34.913 7.52614 34.4917 7.52275C34.2631 7.51562 34.0265 7.50418 33.7867 7.48866C34.0537 7.44691 34.4167 7.42124 34.85 7.41343C35.1786 7.3885 35.5895 7.38098 35.642 7.31608C35.4868 7.26965 35.3139 7.26889 35.1751 7.27372C34.8861 7.27354 34.6069 7.27646 34.3391 7.28248C33.7712 7.29568 33.1563 7.29586 32.5074 7.28302C32.1657 7.27822 31.8415 7.27967 31.5401 7.28733C30.8572 7.29754 30.2027 7.32027 29.5774 7.33073C28.2965 7.34143 27.1282 7.37976 25.8975 7.39999C25.6235 7.40499 25.378 7.42253 25.017 7.39227C24.6559 7.362 24.6399 7.35805 24.5972 7.33926C24.4962 7.3079 24.4656 7.27749 24.5117 7.25436C24.5833 7.23276 24.7228 7.22072 24.9054 7.22041C26.0056 7.18603 27.0492 7.13774 28.0295 7.07584C28.4609 7.06345 28.839 7.03816 29.1504 7.00086C29.3973 6.97517 29.6903 6.95816 30.0201 6.95037C30.4997 6.93179 30.9997 6.91819 31.5181 6.9096C31.7593 6.90498 31.9643 6.89122 32.1212 6.86913C32.2782 6.84704 32.3837 6.81707 32.4317 6.78098L31.7962 6.66112C31.6964 6.65554 31.5973 6.6507 31.4995 6.64664L26.2251 6.73298L25.7027 6.73536C25.1302 6.72821 24.9903 6.71054 24.4472 6.57169C25.6866 6.53902 26.6608 6.44381 27.2729 6.29555C27.1258 6.2796 26.975 6.26592 26.824 6.25482C25.8336 6.21975 24.8973 6.21043 24.0513 6.22722C23.5487 6.22891 23.032 6.22433 22.5133 6.22207C22.665 6.15371 23.2461 6.17408 23.6248 6.15867C24.5297 6.13456 25.3299 6.08475 25.9998 6.01084C26.2307 5.98202 26.5197 5.96359 26.8534 5.9564C27.1873 5.95393 27.4663 5.93648 27.666 5.90559C27.8657 5.8747 27.98 5.8313 27.9991 5.77916C28.0306 5.73196 28.0984 5.6881 28.2015 5.64823C28.0191 5.59165 27.7294 5.53748 27.3869 5.49587C27.0443 5.45425 26.6725 5.42807 26.3411 5.42222C25.6336 5.39892 24.8997 5.36079 24.1583 5.30879C23.7889 5.28256 23.4267 5.26751 23.0952 5.2646C22.8029 5.26237 22.4707 5.24343 22.1491 5.21067C21.8276 5.1779 21.5345 5.13312 21.3144 5.08314C21.0175 5.02136 20.7403 4.95889 20.4631 4.89642C20.186 4.83395 19.8643 4.75501 19.5408 4.67838C19.2556 4.6664 18.9778 4.65869 18.7113 4.65538C18.5039 4.65819 18.262 4.64983 18.014 4.6313C17.766 4.61277 17.5222 4.58483 17.3116 4.55079C17.4351 4.51721 17.5748 4.48758 17.7219 4.44867C17.52 4.3973 17.3735 4.34491 17.2916 4.29469C17.2096 4.24447 17.1937 4.19748 17.2451 4.15658C17.2751 4.11949 17.0555 4.05727 16.9796 4.00809C16.882 3.96569 16.8637 3.92612 16.927 3.89457C16.9904 3.86302 17.1325 3.84096 17.3348 3.83128C17.5856 3.81343 17.7898 3.78654 17.9389 3.75172C17.9882 3.74268 18.0133 3.7303 18.0119 3.71572C18.0105 3.70113 17.9826 3.6848 17.9308 3.66822C17.8791 3.65165 17.805 3.63535 17.7155 3.62082C17.6259 3.60629 17.5238 3.59399 17.4183 3.58506C17.0953 3.55973 16.7745 3.54331 16.4743 3.53674C15.9572 3.52466 15.4622 3.51708 14.9892 3.51398C14.4661 3.50932 13.8842 3.48057 13.3025 3.43063C12.7817 3.38339 12.3148 3.34103 12.0601 3.25074C11.8055 3.16045 11.3983 3.16333 11.0853 3.09761C11.2611 3.03836 11.5737 2.99719 11.9915 2.97826C12.2648 2.97151 12.493 2.95377 12.6614 2.92619C12.8298 2.89862 12.9346 2.86181 12.9692 2.81813L12.0187 2.63486C11.2596 2.54858 10.8397 2.61499 10.0195 2.58039L10.8646 2.51274C10.8816 2.50605 10.8879 2.4982 10.8833 2.48956C10.8013 2.35272 10.6707 2.32346 9.80687 2.24758L9.32203 2.20359L8.55463 2.15139C8.43173 2.12335 8.34674 2.0941 8.30812 2.06658C8.26949 2.03906 8.2786 2.01423 8.33456 1.99457C8.44699 1.9615 8.48117 1.91925 8.43396 1.8717C8.35953 1.84021 8.3534 1.81117 8.4166 1.78963C8.4798 1.76809 8.60836 1.75541 8.77996 1.7538C8.91692 1.75129 8.92709 1.71489 9.0016 1.69428C9.07563 1.66587 9.20234 1.64407 9.37309 1.63036C9.54385 1.61665 9.7546 1.61136 9.99109 1.61484C10.6883 1.61768 11.3433 1.60702 11.9444 1.58304L11.8367 1.57326C12.4633 1.59432 13.049 1.59687 13.5655 1.5808C14.083 1.56057 14.7472 1.57354 15.2969 1.56121C15.7444 1.56404 16.0852 1.53604 16.2468 1.48315C16.4033 1.43266 16.972 1.44444 17.4076 1.45409C17.6656 1.46034 17.9149 1.46298 18.153 1.462C18.4725 1.45057 18.872 1.46135 19.2849 1.49253C19.4087 1.50211 19.5308 1.50718 19.6392 1.50725C20.6888 1.52036 21.7365 1.53578 22.7718 1.54262C23.0108 1.53868 23.2911 1.5477 23.5797 1.56863C23.701 1.57772 23.819 1.58148 23.918 1.57941C25.554 1.55863 27.4001 1.61166 29.004 1.58298C29.1984 1.57621 29.4136 1.5748 29.6435 1.57879C30.1602 1.59564 30.6089 1.5848 30.9214 1.54792C31.0901 1.5283 31.3063 1.51749 31.5563 1.51618C31.8062 1.51486 32.0845 1.52308 32.3733 1.54029C32.8539 1.56308 33.2981 1.56555 33.659 1.54744C34.3627 1.53071 35.1027 1.52383 35.8732 1.52686C36.1093 1.52979 36.3168 1.52328 36.4797 1.50786C36.6426 1.49243 36.7565 1.46849 36.8126 1.4379C36.6233 1.38589 36.4164 1.37957 36.22 1.38414C35.4585 1.37229 34.6989 1.35812 33.9517 1.35253C33.2828 1.33658 32.6411 1.33171 32.0358 1.33798C31.7353 1.34505 31.3603 1.32892 30.9927 1.29311C30.5421 1.24775 30.078 1.22521 29.6943 1.23006C29.4098 1.23126 29.1095 1.22736 28.7978 1.2184C28.5982 1.20759 28.3937 1.18904 28.2052 1.16464C28.1303 1.15404 28.0489 1.14513 27.9661 1.13847C27.8833 1.13182 27.8009 1.12757 27.7242 1.126C27.6474 1.12442 27.578 1.12555 27.5205 1.12932C27.4629 1.1331 27.4184 1.13942 27.3898 1.1479C27.1012 1.21876 26.4558 1.1826 25.9031 1.17476C25.0749 1.05483 24.4585 1.12581 23.6844 1.05808C23.6232 1.05359 23.5628 1.05086 23.5071 1.05009C23.4514 1.04931 23.4015 1.0505 23.3603 1.05356C21.8623 1.09433 20.1164 1.06035 18.5437 1.07443C18.3702 1.07649 18.1689 1.06943 17.9626 1.05406C16.6143 0.952337 15.318 0.923456 14.3271 0.973072C14.2065 0.97754 14.0693 0.977732 13.9218 0.973634C13.2443 0.933204 12.5964 0.917085 12.0322 0.926622C11.148 0.923542 10.2978 0.926039 9.39943 0.916693C8.78011 0.903397 8.23682 0.917603 7.82396 0.957898C7.81083 0.974125 7.53581 0.95664 7.32514 0.954946C7.20399 0.914094 7.09894 0.877195 6.97404 0.84098C6.86238 0.796176 6.69511 0.750836 6.48363 0.708038C6.27215 0.665239 6.02141 0.625984 5.74831 0.592923C5.2814 0.550564 5.23471 0.489097 5.56143 0.466482C6.40354 0.391664 7.46245 0.361042 8.66032 0.376862C9.66166 0.378127 10.681 0.381023 11.6965 0.388553C12.2889 0.395013 12.9133 0.409362 13.4896 0.411875C13.684 0.417395 13.8838 0.42553 14.0868 0.436193C14.3358 0.451653 14.5776 0.460077 14.7992 0.461012C15.5106 0.447992 16.3045 0.459335 17.1431 0.494497C17.4503 0.502165 17.7452 0.504749 18.0235 0.502212C18.682 0.492667 19.3959 0.499691 20.1463 0.523098C20.6127 0.536297 21.0649 0.543199 21.4982 0.543729C21.6513 0.545172 21.7759 0.534084 21.9233 0.542481C23.2209 0.630336 24.1396 0.566878 25.3074 0.600662C25.875 0.610081 26.4172 0.610108 26.9266 0.600742C27.9205 0.601195 28.9421 0.610827 29.9874 0.629598C31.3696 0.660439 32.6505 0.649738 33.9702 0.662471C34.2308 0.665147 34.4824 0.664692 34.7232 0.661104C35.8944 0.637405 37.1665 0.642431 38.5085 0.676059C38.8132 0.680918 39.0869 0.674977 39.3124 0.658613C39.5379 0.64225 39.7104 0.615816 39.8191 0.580964C39.865 0.557044 39.8353 0.525975 39.7354 0.493752C39.5698 0.452599 39.3828 0.412277 39.1774 0.373452L31.7072 0.24317C31.3935 0.236367 31.0875 0.232704 30.7909 0.232198C29.9184 0.231066 29.0191 0.22093 28.0975 0.201843C27.1867 0.183914 26.3167 0.187097 25.4343 0.181698C25.1744 0.179891 24.9077 0.175623 24.6351 0.168911C22.7928 0.115785 20.9964 0.083336 19.2585 0.0717981C18.5273 0.0701607 17.7374 0.0457784 16.992 0.037876C16.2467 0.0299727 15.2274 0.0270795 14.3431 0.0239997L11.6056 0.0244723C11.0671 0.0228999 10.5428 0.0275915 10.0205 0.0299666C9.38653 -0.139518 9.16808 -0.179244 8.32218 -0.253497C8.03278 -0.280887 7.73842 -0.297233 7.47361 -0.30062C6.63389 -0.287222 5.58027 -0.342995 4.78397 -0.33561C4.30347 -0.339253 3.89575 -0.320425 3.60254 -0.281054C3.34801 -0.250155 3.05695 -0.225706 2.73386 -0.208074C1.84881 -0.353064 1.77081 -0.447231 2.43657 -0.483876C2.61695 -0.492394 2.86541 -0.48976 2.99566 -0.507802C3.0704 -0.51879 3.1725 -0.525075 3.29382 -0.52616C3.41515 -0.527247 3.55234 -0.523107 3.69464 -0.514062C4.14376 -0.490335 4.56471 -0.484754 4.91526 -0.497882C5.24517 -0.515255 5.64956 -0.514562 6.08945 -0.495865C6.4127 -0.46654 6.69681 -0.507949 6.97636 -0.519912C7.25591 -0.531876 7.48531 -0.553366 7.92194 -0.52122C8.00189 -0.51482 8.08127 -0.510977 8.15398 -0.509988C8.22669 -0.508998 8.2908 -0.510888 8.3414 -0.515513C8.81034 -0.536216 9.36994 -0.534041 9.97475 -0.509166C10.9024 -0.484686 11.7727 -0.483768 12.5556 -0.506443C13.0242 -0.526283 13.4238 -0.561466 13.7386 -0.61062C13.8244 -0.62706 13.9519 -0.636918 14.1087 -0.639249C14.8964 -0.628993 15.7517 -0.590394 16.6194 -0.525943C16.9462 -0.500118 17.2727 -0.479691 17.5918 -0.465096C18.2475 -0.432674 18.8818 -0.414506 19.4757 -0.41113C20.3388 -0.410595 21.2374 -0.398121 22.1635 -0.37382C22.7351 -0.36029 23.2858 -0.355295 23.8091 -0.358892C24.3471 -0.360589 24.9214 -0.350267 25.5192 -0.328169C26.1136 -0.310162 26.6375 -0.320538 27.0276 -0.35804C27.1561 -0.378249 27.2596 -0.402247 27.3361 -0.429585C26.4657 -0.518545 25.5656 -0.563755 24.8169 -0.556113C24.5325 -0.562006 24.2964 -0.556057 23.9967 -0.590708L23.9873 -0.579117C23.9277 -0.571596 23.8377 -0.569822 23.7346 -0.574133C23.6314 -0.578443 23.5223 -0.588537 23.428 -0.602491C23.4636 -0.646536 23.4974 -0.688262 23.5218 -0.718398C24.0922 -0.713081 24.6461 -0.713512 25.1806 -0.719693C25.6311 -0.728584 26.2428 -0.650701 26.6327 -0.680018C27.3934 -0.643357 27.8777 -0.693976 28.5598 -0.67937C29.242 -0.664764 29.9933 -0.616512 30.6754 -0.601906C31.2706 -0.59389 31.8486 -0.592148 32.406 -0.596687C32.5984 -0.603057 32.8202 -0.601563 33.0578 -0.592294C33.3919 -0.574856 33.7025 -0.571933 33.9542 -0.583864C34.2059 -0.595796 34.3885 -0.622099 34.481 -0.659758C34.3939 -0.695033 34.2765 -0.740517 34.1412 -0.787633C34.3902 -0.826348 34.7684 -0.84265 35.2197 -0.834113L35.8573 -0.835983C36.0263 -0.834961 36.1554 -0.845427 36.2181 -0.865216C36.2808 -0.885006 36.2721 -0.912602 36.1939 -0.9423C34.9848 -1.0918 34.9403 -1.10829 34.0529 -1.01212L32.8746 -1.05681L32.8945 -1.0575ZM48.8314 -0.646811L48.7416 -0.654955L48.8314 -0.646811ZM195.665 15.2596L195.645 15.2851L195.667 15.2572L195.865 15.2752L195.878 15.2589L195.665 15.2596ZM166.985 4.08291C166.705 4.05509 166.424 4.02951 166.141 4.00633C166.067 4.00274 165.997 4.00193 165.938 4.00397C165.88 4.006 165.833 4.01083 165.803 4.01804C165.781 4.04586 165.939 4.06516 166.082 4.0782C166.264 4.09574 166.449 4.10688 166.619 4.11049C166.788 4.11409 166.937 4.11002 167.049 4.09869L167.211 4.08855L166.985 4.08291ZM23.1727 10.8629C23.3566 10.8675 23.5309 10.8683 23.6914 10.8651C24.4035 10.8426 25.0854 10.8099 25.8154 10.7891C26.7366 10.7361 27.7952 10.7146 28.9513 10.7252C29.403 10.7304 29.7846 10.7132 30.0516 10.6757C30.2114 10.6556 30.4177 10.6438 30.6578 10.6412L33.7144 10.58C33.9033 10.5674 34.0667 10.5496 34.2006 10.5271C33.9312 10.5027 33.7516 10.4864 33.6439 10.4766C33.4203 10.4738 33.2282 10.4813 33.0867 10.4982C32.9347 10.5269 32.6778 10.5382 32.367 10.53C32.0532 10.5232 31.7473 10.5195 31.4507 10.519C30.8905 10.5204 30.3265 10.5265 29.7645 10.5302C29.5458 10.6099 28.9004 10.5738 28.3477 10.5659L27.9207 10.5695C26.5251 10.6108 25.1919 10.6677 23.9277 10.7398C23.6834 10.7519 23.4729 10.7714 23.3027 10.7975C23.2386 10.8179 23.2181 10.8433 23.2427 10.8717L23.153 10.8635L23.1727 10.8629ZM85.4961 18.4827C85.8347 18.4881 86.1873 18.4993 86.5486 18.516C86.827 18.533 87.0987 18.5434 87.3527 18.5466C88.7762 18.5645 90.2596 18.6057 91.7829 18.6698C91.9821 18.6796 92.1735 18.6843 92.3498 18.684L93.5966 18.6677C93.9896 18.6585 93.9971 18.6493 93.711 18.5263C93.4737 18.5024 93.2336 18.4806 92.9927 18.4611C92.8491 18.4481 92.6156 18.4269 92.561 18.4468C92.2278 18.5012 91.6202 18.466 91.1091 18.4544C89.6296 18.4247 88.1037 18.3809 86.61 18.3449C86.2942 18.3361 85.9883 18.3316 85.6955 18.3316C85.5137 18.3297 85.348 18.3332 85.2052 18.3418C85.1635 18.3427 85.1286 18.3453 85.1028 18.3494C85.077 18.3535 85.0608 18.359 85.0555 18.3656C85.0502 18.3722 85.0558 18.3797 85.0719 18.3876C85.088 18.3955 85.1143 18.4036 85.149 18.4114C85.2712 18.4388 85.4124 18.465 85.5679 18.4892L85.4961 18.4827ZM96.3343 0.631977L97.7918 0.617396C97.9665 0.615832 98.1148 0.599419 98.3018 0.606439C99.2998 0.628684 100.224 0.622488 101.035 0.588113C101.311 0.574085 101.634 0.571279 101.986 0.579852C103.064 0.605255 104.081 0.606301 105.01 0.582958C105.61 0.578273 106.171 0.562538 106.686 0.535988C106.726 0.529825 106.751 0.521457 106.759 0.511456C106.767 0.501455 106.758 0.490055 106.733 0.478035C106.727 0.47044 106.709 0.46227 106.681 0.454089C106.654 0.445908 106.617 0.437907 106.573 0.430641C106.53 0.423376 106.48 0.417018 106.429 0.412003C106.377 0.406988 106.325 0.403432 106.274 0.401588C105.624 0.36565 105.007 0.35313 104.473 0.365044C103.978 0.379301 103.445 0.383471 102.882 0.377493C102.344 0.375921 101.978 0.422406 101.313 0.386936C101.032 0.375256 100.783 0.379101 100.61 0.397827C100.262 0.428867 99.7755 0.430593 99.2377 0.4027C98.916 0.388584 98.6085 0.382529 98.3269 0.384769C97.644 0.394974 96.9914 0.415391 96.3586 0.43512C96.1592 0.439683 95.9455 0.440313 95.721 0.436995L92.5524 0.398363C91.7909 0.386514 91.0313 0.372345 90.2841 0.36676C89.6729 0.354634 89.1042 0.358432 88.5979 0.37802C88.0581 0.398608 87.4695 0.406966 86.8429 0.402936C85.87 0.414203 84.9027 0.418513 83.8437 0.416997C83.1683 0.417929 82.4768 0.414916 81.7711 0.405635C81.414 0.393691 81.111 0.403418 80.9201 0.432943C80.8041 0.457252 80.5309 0.437448 80.3042 0.431807C79.0947 0.377434 77.9605 0.364552 76.9807 0.394054C76.8556 0.398861 76.7182 0.400603 76.5716 0.399246C75.6279 0.398233 74.6502 0.391643 73.7442 0.39157C73.5057 0.393862 73.2813 0.400152 73.0737 0.41036C73.0959 0.427013 73.1593 0.445063 73.2506 0.460766C73.342 0.476469 73.4544 0.48862 73.5644 0.494698C74.4213 0.541224 75.2486 0.565802 76.0115 0.567401C77.2816 0.561474 78.6119 0.574799 79.9888 0.607233C81.0571 0.639932 82.0312 0.633048 82.8387 0.587091C83.4698 0.552801 84.2909 0.565703 85.1609 0.623582C85.5331 0.651225 85.8945 0.662278 86.1954 0.655232C86.4851 0.645988 86.8175 0.64823 87.1732 0.661824C87.9231 0.687673 88.6442 0.699664 89.3225 0.697561C89.9856 0.688045 90.6042 0.66205 91.2852 0.654164C91.9663 0.646278 93.0035 0.650797 93.8432 0.637398C94.6829 0.624 95.5133 0.622195 96.3343 0.631977ZM35.9402 -0.723959C36.0171 -0.652282 36.2894 -0.607668 36.5824 -0.588556C37.5924 -0.50369 38.5909 -0.467577 39.4103 -0.486276C39.8529 -0.51236 40.443 -0.50232 41.0646 -0.458127C41.7883 -0.412189 42.4648 -0.404571 42.9748 -0.436615C43.0997 -0.442215 43.1954 -0.454051 43.2533 -0.471071C43.2645 -0.48498 43.2852 -0.510479 43.2889 -0.515115C43.2353 -0.526873 43.1696 -0.537767 43.0968 -0.546958C43.0241 -0.55615 42.9462 -0.56339 42.8692 -0.568123L39.5237 -0.650173L38.9407 -0.668228C37.8758 -0.715531 36.8612 -0.734375 35.9402 -0.723959ZM42.5207 0.410518C43.0429 0.527561 43.0447 0.525237 43.3122 0.551993C44.6027 0.663128 45.8923 0.723121 47.0276 0.724833C47.2799 0.724493 47.4941 0.713196 47.6519 0.691888C47.7331 0.689001 47.7848 0.679826 47.7957 0.666364C47.8065 0.652902 47.7758 0.636245 47.71 0.620026L47.2948 0.53757C46.5408 0.501873 45.7976 0.473508 45.0697 0.452648C44.2222 0.428017 43.4711 0.427065 42.5925 0.417031L42.5207 0.410518ZM85.4335 17.9644C85.92 18.1255 85.9219 18.1232 86.7364 18.1647C87.3041 18.1942 87.8546 18.2115 88.3719 18.2161C89.0039 18.2212 89.652 18.2302 90.2821 18.2376C90.436 18.2427 90.5664 18.2385 90.6481 18.2256C90.7297 18.2128 90.7567 18.1923 90.7238 18.1682C90.6412 18.142 90.5118 18.1166 90.3568 18.0962C90.2018 18.0758 90.0303 18.0616 89.8701 18.0559L89.5263 18.0521C89.1087 18.044 88.675 18.0321 88.2716 18.0303C88.0099 18.037 87.7067 18.0318 87.3857 18.0152C87.0647 17.9986 86.7346 17.971 86.4214 17.9346L85.4335 17.9644ZM45.1187 -0.513338C45.2486 -0.485441 45.3956 -0.458722 45.5556 -0.433892C46.1753 -0.36507 46.8311 -0.325982 47.3945 -0.324291C47.661 -0.320027 47.9046 -0.335249 48.1758 -0.313129C48.6623 -0.283571 49.1338 -0.267826 49.5648 -0.266746C49.5648 -0.266746 49.6856 -0.2732 49.7253 -0.274579L49.8078 -0.376577C49.6038 -0.400206 49.391 -0.41951 49.1793 -0.4336C48.4688 -0.460736 47.7706 -0.479289 47.0742 -0.50016C46.3779 -0.521032 46.1351 -0.530619 45.6797 -0.539584C45.4766 -0.534656 45.2887 -0.525865 45.1187 -0.513338ZM29.7317 12.1671L30.6615 12.3758C30.9624 12.394 31.2435 12.3973 31.462 12.3852C31.6806 12.3731 31.8245 12.3464 31.8721 12.309C31.9487 12.2915 31.9564 12.2656 31.8935 12.2367C31.8306 12.2078 31.7021 12.1781 31.5349 12.154C31.374 12.1253 31.1903 12.0997 30.9952 12.0785C30.8001 12.0574 30.5977 12.0413 30.4006 12.0312L29.7317 12.1671ZM37.4735 11.1276C36.8654 11.0922 36.2837 11.0777 35.7729 11.0853C35.4511 11.106 35.0151 11.0994 34.5542 11.0668C33.7161 11.0018 32.9082 10.9839 32.3009 11.0167C32.3009 11.0167 32.2784 11.0445 32.1755 11.0525C32.0726 11.0606 32.4808 11.0802 32.5706 11.0884C33.2291 11.1083 33.8914 11.1236 34.4639 11.1308C34.8193 11.1305 35.1953 11.137 35.5853 11.1504C36.1219 11.171 36.6309 11.1777 37.0922 11.1701C37.0922 11.1701 37.2707 11.1639 37.4717 11.1299L37.4735 11.1276ZM102.423 0.253747C102.133 0.214429 101.818 0.182474 101.502 0.16028C101.186 0.138086 100.877 0.126232 100.599 0.1256C100.386 0.123548 100.214 0.133929 100.109 0.155101C100.005 0.176274 99.9746 0.20703 100.023 0.242504C100.238 0.262055 100.526 0.288121 100.687 0.302783C101.247 0.301349 101.725 0.282496 102.423 0.253747ZM156.8 3.56703C156.567 3.53538 156.31 3.51118 156.059 3.49719C155.808 3.48321 155.573 3.48 155.38 3.48795C155.281 3.49139 155.348 3.52735 155.331 3.54822C155.32 3.55295 155.32 3.55883 155.331 3.56525C155.343 3.57167 155.365 3.57839 155.395 3.58471C155.425 3.59103 155.463 3.59671 155.504 3.60115C155.545 3.6056 155.588 3.60866 155.628 3.61C155.881 3.62363 156.12 3.62769 156.323 3.62181C156.526 3.61593 156.687 3.6003 156.793 3.5763L156.8 3.56703ZM160.443 4.01949C160.407 4.00081 160.331 3.98135 160.227 3.96466C160.124 3.94797 160.001 3.93518 159.881 3.92863C159.669 3.92776 159.476 3.93293 159.309 3.94398C159.129 3.95249 159.259 4.00657 159.503 4.03865C159.606 4.05153 159.716 4.06157 159.825 4.06798C159.934 4.0744 160.038 4.077 160.129 4.07559C160.22 4.07418 160.295 4.06879 160.349 4.05986C160.403 4.05092 160.434 4.03869 160.44 4.02412L160.443 4.01949ZM54.5768 -0.314685C54.0333 -0.381416 53.6149 -0.364628 53.1547 -0.391449C52.6945 -0.41827 52.5811 -0.421092 52.6427 -0.378173C52.7044 -0.335255 53.0199 -0.343959 53.2174 -0.326038C53.4843 -0.302259 53.7528 -0.288604 53.9929 -0.286599C54.233 -0.284593 54.4352 -0.294317 54.5768 -0.314685ZM167.845 10.9765C167.557 10.9615 167.275 10.9509 167.004 10.9449C166.968 10.9511 166.945 10.9592 166.938 10.9688C166.93 10.9783 166.937 10.9891 166.959 11.0005C166.959 11.0005 167.143 11.0347 167.251 11.0444C167.648 11.078 167.667 11.03 167.845 10.9765ZM208.538 17.1938C208.733 17.2389 208.824 17.2695 208.98 17.2911C209.052 17.2986 209.126 17.3041 209.197 17.3071C209.268 17.3101 209.334 17.3105 209.39 17.3084C209.459 17.2954 209.475 17.2756 209.435 17.2528C209.435 17.2528 209.236 17.2124 209.161 17.2105C208.945 17.2009 208.736 17.1953 208.538 17.1938ZM45.3245 -0.696221C44.9115 -0.733692 44.5164 -0.769537 44.2304 -0.725808C44.8863 -0.678749 44.8863 -0.678746 45.3245 -0.696221ZM52.0143 -0.268476C51.5972 -0.348613 51.3525 -0.355886 51.1522 -0.346678C51.1097 -0.344359 51.0815 -0.33919 51.072 -0.331956C51.0625 -0.324722 51.0722 -0.315816 51.0996 -0.306584C51.127 -0.297352 51.1705 -0.288298 51.2238 -0.280791C51.277 -0.273283 51.337 -0.26773 51.3946 -0.264975C51.6121 -0.262667 51.8195 -0.263839 52.0143 -0.268476ZM73.4798 -0.234588C73.4892 -0.246179 73.5005 -0.260087 73.3927 -0.269863C73.3645 -0.274825 73.3314 -0.279092 73.2967 -0.282238C73.262 -0.285384 73.227 -0.287295 73.1952 -0.287782C73.1952 -0.287782 73.1839 -0.273872 73.1764 -0.2646L73.4798 -0.234588ZM88.386 19.0086L88.1462 19.0192L88.2539 19.029L88.5383 19.0349L88.386 19.0086ZM172.849 3.83862C172.76 3.83048 172.67 3.82233 172.657 3.83856C172.638 3.84107 172.626 3.8447 172.622 3.84914C172.619 3.85357 172.624 3.85869 172.636 3.86406C172.636 3.86406 172.762 3.87546 172.816 3.88035L172.849 3.83862ZM158.866 3.96841C158.806 3.96747 158.753 3.96856 158.709 3.9716L158.698 3.98551L158.877 4.0018L158.866 3.96841ZM36.9993 7.28245C36.9299 7.274 36.8564 7.26733 36.7838 7.2629L36.694 7.25475C36.694 7.25475 36.7904 7.27843 36.8443 7.28332C36.8982 7.28821 36.9416 7.2822 36.9993 7.28245Z" fill="#DDA01D"/>
</g>
</svg>
