<svg width="42" height="42" viewBox="0 0 42 42" fill="none" xmlns="http://www.w3.org/2000/svg">
<path d="M29.4525 27.3698C30.625 26.5998 32.165 27.4398 32.165 28.8398V31.0973C32.165 33.3198 30.4325 35.6998 28.35 36.3998L22.7675 38.2548C21.7875 38.5873 20.195 38.5873 19.2325 38.2548L13.65 36.3998C11.55 35.6998 9.83496 33.3198 9.83496 31.0973V28.8223C9.83496 27.4398 11.375 26.5998 12.53 27.3523L16.135 29.6973C17.5175 30.6248 19.2675 31.0798 21.0175 31.0798C22.7675 31.0798 24.5175 30.6248 25.9 29.6973L29.4525 27.3698Z" fill="#0095FF"/>
<path d="M34.9649 11.305L24.4824 4.42748C22.5924 3.18498 19.4774 3.18498 17.5874 4.42748L7.05241 11.305C3.67491 13.4925 3.67491 18.445 7.05241 20.65L9.85241 22.47L17.5874 27.51C19.4774 28.7525 22.5924 28.7525 24.4824 27.51L32.1649 22.47L34.5624 20.895V26.25C34.5624 26.9675 35.1574 27.5625 35.8749 27.5625C36.5924 27.5625 37.1874 26.9675 37.1874 26.25V17.64C37.8874 15.3825 37.1699 12.7575 34.9649 11.305Z" fill="#0095FF"/>
</svg>
