<svg width="42" height="42" viewBox="0 0 42 42" fill="none" xmlns="http://www.w3.org/2000/svg">
<path d="M21 18.41C20.2825 18.41 19.6875 17.815 19.6875 17.0975V11.27C19.6875 10.5525 20.2825 9.95752 21 9.95752C21.7175 9.95752 22.3125 10.5525 22.3125 11.27V17.0975C22.3125 17.8325 21.7175 18.41 21 18.41Z" fill="#0095FF"/>
<path d="M21.035 35.6129C16.52 35.6129 12.0225 34.8954 7.73501 33.4604C6.14251 32.9354 4.93501 31.7979 4.41001 30.3629C3.88501 28.9279 4.06001 27.2829 4.91751 25.8479L7.14001 22.1379C7.63001 21.3154 8.06751 19.7754 8.06751 18.8129V15.1379C8.06751 7.98041 13.8775 2.17041 21.035 2.17041C28.1925 2.17041 34.0025 7.98041 34.0025 15.1379V18.8129C34.0025 19.7579 34.44 21.3154 34.93 22.1379L37.1525 25.8479C37.975 27.2129 38.115 28.8404 37.5725 30.3279C37.03 31.8154 35.84 32.9529 34.335 33.4604C30.0475 34.9129 25.55 35.6129 21.035 35.6129ZM21.035 4.81291C15.33 4.81291 10.6925 9.45041 10.6925 15.1554V18.8304C10.6925 20.2479 10.1325 22.2954 9.39751 23.5029L7.17501 27.2304C6.72001 27.9829 6.61501 28.7879 6.87751 29.4879C7.14001 30.1879 7.73501 30.7129 8.57501 30.9929C16.625 33.6704 25.48 33.6704 33.53 30.9929C34.2825 30.7479 34.86 30.1879 35.1225 29.4529C35.4025 28.7179 35.315 27.9129 34.9125 27.2304L32.69 23.5204C31.955 22.3129 31.395 20.2654 31.395 18.8479V15.1729C31.3775 9.45041 26.74 4.81291 21.035 4.81291Z" fill="#0095FF"/>
<path d="M21.0001 40.0746C19.1276 40.0746 17.2901 39.3046 15.9601 37.9746C14.6301 36.6446 13.8601 34.8071 13.8601 32.9346H16.4851C16.4851 34.1246 16.9751 35.2796 17.8151 36.1196C18.6551 36.9596 19.8101 37.4496 21.0001 37.4496C23.4851 37.4496 25.5151 35.4196 25.5151 32.9346H28.1401C28.1401 36.8721 24.9376 40.0746 21.0001 40.0746Z" fill="#0095FF"/>
</svg>
