<svg width="42" height="42" viewBox="0 0 42 42" fill="none" xmlns="http://www.w3.org/2000/svg">
<path d="M26.25 39.8125H15.75C6.2475 39.8125 2.1875 35.7525 2.1875 26.25V15.75C2.1875 6.2475 6.2475 2.1875 15.75 2.1875H26.25C35.7525 2.1875 39.8125 6.2475 39.8125 15.75V26.25C39.8125 35.7525 35.7525 39.8125 26.25 39.8125ZM15.75 4.8125C7.6825 4.8125 4.8125 7.6825 4.8125 15.75V26.25C4.8125 34.3175 7.6825 37.1875 15.75 37.1875H26.25C34.3175 37.1875 37.1875 34.3175 37.1875 26.25V15.75C37.1875 7.6825 34.3175 4.8125 26.25 4.8125H15.75Z" fill="#0095FF"/>
<path d="M27.125 33.6875C24.465 33.6875 22.3125 31.535 22.3125 28.875V13.125C22.3125 10.465 24.465 8.3125 27.125 8.3125C29.785 8.3125 31.9375 10.465 31.9375 13.125V28.875C31.9375 31.535 29.785 33.6875 27.125 33.6875ZM27.125 10.9375C25.9175 10.9375 24.9375 11.9175 24.9375 13.125V28.875C24.9375 30.0825 25.9175 31.0625 27.125 31.0625C28.3325 31.0625 29.3125 30.0825 29.3125 28.875V13.125C29.3125 11.9175 28.3325 10.9375 27.125 10.9375Z" fill="#0095FF"/>
<path d="M14.875 33.6875C12.215 33.6875 10.0625 31.535 10.0625 28.875V22.75C10.0625 20.09 12.215 17.9375 14.875 17.9375C17.535 17.9375 19.6875 20.09 19.6875 22.75V28.875C19.6875 31.535 17.535 33.6875 14.875 33.6875ZM14.875 20.5625C13.6675 20.5625 12.6875 21.5425 12.6875 22.75V28.875C12.6875 30.0825 13.6675 31.0625 14.875 31.0625C16.0825 31.0625 17.0625 30.0825 17.0625 28.875V22.75C17.0625 21.5425 16.0825 20.5625 14.875 20.5625Z" fill="#0095FF"/>
</svg>
