<svg width="42" height="42" viewBox="0 0 42 42" fill="none" xmlns="http://www.w3.org/2000/svg">
<path d="M29.75 39.8125H12.25C4.5325 39.8125 2.1875 37.4675 2.1875 29.75V12.25C2.1875 4.5325 4.5325 2.1875 12.25 2.1875H14.875C17.9375 2.1875 18.9 3.185 20.125 4.8125L22.75 8.3125C23.3275 9.0825 23.415 9.1875 24.5 9.1875H29.75C37.4675 9.1875 39.8125 11.5325 39.8125 19.25V29.75C39.8125 37.4675 37.4675 39.8125 29.75 39.8125ZM12.25 4.8125C5.985 4.8125 4.8125 6.0025 4.8125 12.25V29.75C4.8125 35.9975 5.985 37.1875 12.25 37.1875H29.75C36.015 37.1875 37.1875 35.9975 37.1875 29.75V19.25C37.1875 13.0025 36.015 11.8125 29.75 11.8125H24.5C22.26 11.8125 21.525 11.0425 20.65 9.8875L18.025 6.3875C17.115 5.18 16.835 4.8125 14.875 4.8125H12.25Z" fill="#0095FF"/>
<path d="M35 12.4775C34.2825 12.4775 33.6875 11.8825 33.6875 11.165V8.75C33.6875 5.985 32.515 4.8125 29.75 4.8125H14C13.2825 4.8125 12.6875 4.2175 12.6875 3.5C12.6875 2.7825 13.2825 2.1875 14 2.1875H29.75C33.985 2.1875 36.3125 4.515 36.3125 8.75V11.165C36.3125 11.8825 35.7175 12.4775 35 12.4775Z" fill="#0095FF"/>
</svg>
