<svg width="20" height="20" viewBox="0 0 20 20" fill="none" xmlns="http://www.w3.org/2000/svg">
<path d="M9.90191 11.5967C8.2276 11.5967 6.85986 10.2369 6.85986 8.55469C6.85986 6.87253 8.2276 5.52051 9.90191 5.52051C11.5762 5.52051 12.944 6.88039 12.944 8.56255C12.944 10.2447 11.5762 11.5967 9.90191 11.5967ZM9.90191 6.69959C8.88003 6.69959 8.03895 7.53282 8.03895 8.56255C8.03895 9.59229 8.87217 10.4255 9.90191 10.4255C10.9316 10.4255 11.7649 9.59229 11.7649 8.56255C11.7649 7.53282 10.9238 6.69959 9.90191 6.69959Z" fill="#666666"/>
<path d="M9.90195 18.3485C8.73859 18.3485 7.56736 17.9083 6.65554 17.0358C4.33666 14.8034 1.77412 11.2426 2.74097 7.00572C3.61349 3.1619 6.96996 1.44043 9.90195 1.44043C9.90195 1.44043 9.90195 1.44043 9.90982 1.44043C12.8418 1.44043 16.1983 3.1619 17.0708 7.01358C18.0298 11.2504 15.4672 14.8034 13.1484 17.0358C12.2365 17.9083 11.0653 18.3485 9.90195 18.3485ZM9.90195 2.61952C7.61453 2.61952 4.67467 3.83791 3.89647 7.26512C3.04753 10.9675 5.37426 14.1588 7.4809 16.179C8.84078 17.4917 10.971 17.4917 12.3309 16.179C14.4296 14.1588 16.7564 10.9675 15.9232 7.26512C15.1371 3.83791 12.1894 2.61952 9.90195 2.61952Z" fill="#666666"/>
</svg>
