<svg width="99" height="19" viewBox="0 0 99 19" fill="none" xmlns="http://www.w3.org/2000/svg">
<path d="M11.1482 2.87993L12.5317 5.64686C12.7203 6.03203 13.2234 6.40147 13.6479 6.47222L16.1554 6.88883C17.759 7.15609 18.1363 8.31945 16.9808 9.4671L15.0313 11.4165C14.7012 11.7467 14.5204 12.3834 14.6226 12.8393L15.1807 15.2525C15.6209 17.1626 14.6069 17.9015 12.9168 16.9032L10.5665 15.5119C10.1421 15.2603 9.44246 15.2603 9.01013 15.5119L6.65982 16.9032C4.97765 17.9015 3.95578 17.1547 4.39597 15.2525L4.95407 12.8393C5.05626 12.3834 4.87547 11.7467 4.54532 11.4165L2.5959 9.4671C1.44825 8.31945 1.8177 7.15609 3.42126 6.88883L5.92878 6.47222C6.34539 6.40147 6.84847 6.03203 7.03713 5.64686L8.42059 2.87993C9.1752 1.37856 10.4015 1.37856 11.1482 2.87993Z" fill="#DDA01D"/>
<path d="M30.9569 2.87993L32.3404 5.64686C32.529 6.03203 33.0321 6.40147 33.4566 6.47222L35.9641 6.88883C37.5677 7.15609 37.945 8.31945 36.7895 9.4671L34.84 11.4165C34.5099 11.7467 34.3291 12.3834 34.4313 12.8393L34.9894 15.2525C35.4296 17.1626 34.4156 17.9015 32.7256 16.9032L30.3752 15.5119C29.9508 15.2603 29.2512 15.2603 28.8188 15.5119L26.4685 16.9032C24.7864 17.9015 23.7645 17.1547 24.2047 15.2525L24.7628 12.8393C24.865 12.3834 24.6842 11.7467 24.354 11.4165L22.4046 9.4671C21.257 8.31945 21.6264 7.15609 23.23 6.88883L25.7375 6.47222C26.1541 6.40147 26.6572 6.03203 26.8458 5.64686L28.2293 2.87993C28.9839 1.37856 30.2102 1.37856 30.9569 2.87993Z" fill="#DDA01D"/>
<path d="M50.7655 2.87993L52.149 5.64686C52.3376 6.03203 52.8407 6.40147 53.2652 6.47222L55.7727 6.88883C57.3763 7.15609 57.7536 8.31945 56.5981 9.4671L54.6486 11.4165C54.3185 11.7467 54.1377 12.3834 54.2399 12.8393L54.798 15.2525C55.2382 17.1626 54.2242 17.9015 52.5341 16.9032L50.1838 15.5119C49.7594 15.2603 49.0598 15.2603 48.6274 15.5119L46.2771 16.9032C44.595 17.9015 43.5731 17.1547 44.0133 15.2525L44.5714 12.8393C44.6736 12.3834 44.4928 11.7467 44.1626 11.4165L42.2132 9.4671C41.0656 8.31945 41.435 7.15609 43.0386 6.88883L45.5461 6.47222C45.9627 6.40147 46.4658 6.03203 46.6544 5.64686L48.0379 2.87993C48.7925 1.37856 50.0188 1.37856 50.7655 2.87993Z" fill="#DDA01D"/>
<path d="M70.5742 2.87993L71.9577 5.64686C72.1463 6.03203 72.6494 6.40147 73.0739 6.47222L75.5814 6.88883C77.185 7.15609 77.5623 8.31945 76.4068 9.4671L74.4574 11.4165C74.1272 11.7467 73.9464 12.3834 74.0486 12.8393L74.6067 15.2525C75.0469 17.1626 74.0329 17.9015 72.3429 16.9032L69.9926 15.5119C69.5681 15.2603 68.8685 15.2603 68.4362 15.5119L66.0858 16.9032C64.4037 17.9015 63.3818 17.1547 63.822 15.2525L64.3801 12.8393C64.4823 12.3834 64.3015 11.7467 63.9713 11.4165L62.0219 9.4671C60.8743 8.31945 61.2437 7.15609 62.8473 6.88883L65.3548 6.47222C65.7714 6.40147 66.2745 6.03203 66.4632 5.64686L67.8466 2.87993C68.6012 1.37856 69.8275 1.37856 70.5742 2.87993Z" fill="#DDA01D"/>
<path d="M93.4722 17.9405C93.0556 17.9405 92.521 17.8069 91.8529 17.4139L89.5026 16.0226C89.2589 15.8811 88.7873 15.8811 88.5515 16.0226L86.1933 17.4139C84.802 18.2392 83.9845 17.9091 83.615 17.6418C83.2534 17.3746 82.6875 16.6907 83.0569 15.1186L83.615 12.7054C83.6779 12.4539 83.5521 12.0215 83.3635 11.8329L81.4141 9.88345C80.4393 8.90873 80.5179 8.07551 80.6516 7.66676C80.7852 7.25801 81.2097 6.53484 82.5617 6.30688L85.0692 5.89027C85.305 5.85097 85.643 5.59943 85.7452 5.38719L87.1366 2.61241C87.7654 1.34686 88.5908 1.1582 89.0231 1.1582C89.4554 1.1582 90.2808 1.34686 90.9096 2.61241L92.2931 5.37933C92.4031 5.59157 92.7411 5.84311 92.977 5.88241L95.4845 6.29902C96.8444 6.52698 97.2688 7.25015 97.3946 7.6589C97.5204 8.06765 97.599 8.90087 96.6321 9.87558L94.6827 11.8329C94.4941 12.0215 94.3761 12.446 94.4312 12.7054L94.9893 15.1186C95.3509 16.6907 94.7928 17.3746 94.4312 17.6418C94.2347 17.7833 93.9202 17.9405 93.4722 17.9405ZM89.0231 14.7334C89.4083 14.7334 89.7934 14.8277 90.1 15.0085L92.4503 16.3999C93.1342 16.8086 93.5665 16.8086 93.7316 16.6907C93.8966 16.5728 94.0146 16.1562 93.8416 15.3858L93.2835 12.9727C93.1342 12.3202 93.3778 11.4791 93.8495 10.9996L95.7989 9.05022C96.1841 8.66506 96.357 8.28775 96.2784 8.02835C96.1919 7.76895 95.8303 7.55671 95.2958 7.47025L92.7883 7.05364C92.183 6.95145 91.5228 6.46409 91.2476 5.91385L89.8642 3.14693C89.6126 2.64385 89.2982 2.34515 89.0231 2.34515C88.748 2.34515 88.4335 2.64385 88.1899 3.14693L86.7985 5.91385C86.5234 6.46409 85.8631 6.95145 85.2579 7.05364L82.7582 7.47025C82.2237 7.55671 81.8621 7.76895 81.7756 8.02835C81.6892 8.28775 81.87 8.67292 82.2551 9.05022L84.2046 10.9996C84.6762 11.4713 84.9199 12.3202 84.7705 12.9727L84.2124 15.3858C84.0316 16.164 84.1574 16.5728 84.3225 16.6907C84.4875 16.8086 84.912 16.8008 85.6037 16.3999L87.9541 15.0085C88.2528 14.8277 88.6379 14.7334 89.0231 14.7334Z" fill="#DDA01D"/>
</svg>
