<svg width="24" height="25" viewBox="0 0 24 25" fill="none" xmlns="http://www.w3.org/2000/svg">
<path d="M11 20.9756C5.62 20.9756 1.25 16.6056 1.25 11.2256C1.25 5.84559 5.62 1.47559 11 1.47559C16.38 1.47559 20.75 5.84559 20.75 11.2256C20.75 16.6056 16.38 20.9756 11 20.9756ZM11 2.97559C6.45 2.97559 2.75 6.67559 2.75 11.2256C2.75 15.7756 6.45 19.4756 11 19.4756C15.55 19.4756 19.25 15.7756 19.25 11.2256C19.25 6.67559 15.55 2.97559 11 2.97559Z" fill="#979797"/>
<path d="M20.16 23.0156C20.08 23.0156 20 23.0056 19.93 22.9956C19.46 22.9356 18.61 22.6156 18.13 21.1856C17.88 20.4356 17.97 19.6856 18.38 19.1156C18.79 18.5456 19.48 18.2256 20.27 18.2256C21.29 18.2256 22.09 18.6156 22.45 19.3056C22.81 19.9956 22.71 20.8756 22.14 21.7256C21.43 22.7956 20.66 23.0156 20.16 23.0156ZM19.56 20.7156C19.73 21.2356 19.97 21.4956 20.13 21.5156C20.29 21.5356 20.59 21.3456 20.9 20.8956C21.19 20.4656 21.21 20.1556 21.14 20.0156C21.07 19.8756 20.79 19.7256 20.27 19.7256C19.96 19.7256 19.73 19.8256 19.6 19.9956C19.48 20.1656 19.46 20.4256 19.56 20.7156Z" fill="#979797"/>
</svg>
