<svg width="20" height="20" viewBox="0 0 20 20" fill="none" xmlns="http://www.w3.org/2000/svg">
<path d="M13.0936 13.9775L6.02254 6.90641C5.78094 6.66481 5.78094 6.26412 6.02254 6.02252C6.26413 5.78093 6.66482 5.78093 6.90642 6.02252L13.9775 13.0936C14.2191 13.3352 14.2191 13.7359 13.9775 13.9775C13.7359 14.2191 13.3352 14.2191 13.0936 13.9775Z" fill="#979797"/>
<path d="M6.02251 13.9775C5.78092 13.7359 5.78092 13.3352 6.02251 13.0936L13.0936 6.02252C13.3352 5.78093 13.7359 5.78093 13.9775 6.02252C14.2191 6.26412 14.2191 6.66481 13.9775 6.90641L6.9064 13.9775C6.6648 14.2191 6.26411 14.2191 6.02251 13.9775Z" fill="#979797"/>
</svg>
