<svg width="104" height="20" viewBox="0 0 104 20" fill="none" xmlns="http://www.w3.org/2000/svg">
<path d="M11.4416 2.92492L12.9083 5.85825C13.1083 6.26659 13.6416 6.65825 14.0916 6.73325L16.7499 7.17492C18.4499 7.45825 18.8499 8.69159 17.6249 9.90825L15.5583 11.9749C15.2083 12.3249 15.0166 12.9999 15.1249 13.4833L15.7166 16.0416C16.1833 18.0666 15.1083 18.8499 13.3166 17.7916L10.8249 16.3166C10.3749 16.0499 9.63326 16.0499 9.17493 16.3166L6.68326 17.7916C4.89992 18.8499 3.81659 18.0583 4.28326 16.0416L4.87492 13.4833C4.98326 12.9999 4.79159 12.3249 4.44159 11.9749L2.37492 9.90825C1.15826 8.69159 1.54992 7.45825 3.24992 7.17492L5.90826 6.73325C6.34992 6.65825 6.88326 6.26659 7.08326 5.85825L8.54993 2.92492C9.34993 1.33325 10.6499 1.33325 11.4416 2.92492Z" fill="#DDA01D"/>
<path d="M32.4416 2.92492L33.9083 5.85825C34.1083 6.26659 34.6416 6.65825 35.0916 6.73325L37.7499 7.17492C39.4499 7.45825 39.8499 8.69159 38.6249 9.90825L36.5583 11.9749C36.2083 12.3249 36.0166 12.9999 36.1249 13.4833L36.7166 16.0416C37.1833 18.0666 36.1083 18.8499 34.3166 17.7916L31.8249 16.3166C31.3749 16.0499 30.6333 16.0499 30.1749 16.3166L27.6833 17.7916C25.8999 18.8499 24.8166 18.0583 25.2833 16.0416L25.8749 13.4833C25.9833 12.9999 25.7916 12.3249 25.4416 11.9749L23.3749 9.90825C22.1583 8.69159 22.5499 7.45825 24.2499 7.17492L26.9083 6.73325C27.3499 6.65825 27.8833 6.26659 28.0833 5.85825L29.5499 2.92492C30.3499 1.33325 31.6499 1.33325 32.4416 2.92492Z" fill="#DDA01D"/>
<path d="M53.4416 2.92492L54.9083 5.85825C55.1083 6.26659 55.6416 6.65825 56.0916 6.73325L58.7499 7.17492C60.4499 7.45825 60.8499 8.69159 59.6249 9.90825L57.5583 11.9749C57.2083 12.3249 57.0166 12.9999 57.1249 13.4833L57.7166 16.0416C58.1833 18.0666 57.1083 18.8499 55.3166 17.7916L52.8249 16.3166C52.3749 16.0499 51.6333 16.0499 51.1749 16.3166L48.6833 17.7916C46.8999 18.8499 45.8166 18.0583 46.2833 16.0416L46.8749 13.4833C46.9833 12.9999 46.7916 12.3249 46.4416 11.9749L44.3749 9.90825C43.1583 8.69159 43.5499 7.45825 45.2499 7.17492L47.9083 6.73325C48.3499 6.65825 48.8833 6.26659 49.0833 5.85825L50.5499 2.92492C51.3499 1.33325 52.6499 1.33325 53.4416 2.92492Z" fill="#DDA01D"/>
<path d="M74.4416 2.92492L75.9083 5.85825C76.1083 6.26659 76.6416 6.65825 77.0916 6.73325L79.7499 7.17492C81.4499 7.45825 81.8499 8.69159 80.6249 9.90825L78.5583 11.9749C78.2083 12.3249 78.0166 12.9999 78.1249 13.4833L78.7166 16.0416C79.1833 18.0666 78.1083 18.8499 76.3166 17.7916L73.8249 16.3166C73.3749 16.0499 72.6333 16.0499 72.1749 16.3166L69.6833 17.7916C67.8999 18.8499 66.8166 18.0583 67.2833 16.0416L67.8749 13.4833C67.9833 12.9999 67.7916 12.3249 67.4416 11.9749L65.3749 9.90825C64.1583 8.69159 64.5499 7.45825 66.2499 7.17492L68.9083 6.73325C69.3499 6.65825 69.8833 6.26659 70.0833 5.85825L71.5499 2.92492C72.3499 1.33325 73.6499 1.33325 74.4416 2.92492Z" fill="#DDA01D"/>
<path d="M98.7167 18.8917C98.2751 18.8917 97.7084 18.75 97.0001 18.3333L94.5084 16.8583C94.2501 16.7083 93.7501 16.7083 93.5001 16.8583L91.0001 18.3333C89.5251 19.2083 88.6584 18.8583 88.2667 18.575C87.8834 18.2917 87.2834 17.5667 87.6751 15.9L88.2667 13.3417C88.3334 13.075 88.2001 12.6167 88.0001 12.4167L85.9334 10.35C84.9001 9.31666 84.9834 8.43333 85.1251 7.99999C85.2667 7.56666 85.7167 6.79999 87.1501 6.55832L89.8084 6.11666C90.0584 6.07499 90.4167 5.80832 90.5251 5.58332L92.0001 2.64166C92.6667 1.29999 93.5417 1.09999 94.0001 1.09999C94.4584 1.09999 95.3334 1.29999 96.0001 2.64166L97.4667 5.57499C97.5834 5.79999 97.9417 6.06666 98.1917 6.10832L100.85 6.54999C102.292 6.79166 102.742 7.55832 102.875 7.99166C103.008 8.42499 103.092 9.30832 102.067 10.3417L100 12.4167C99.8001 12.6167 99.6751 13.0667 99.7334 13.3417L100.325 15.9C100.708 17.5667 100.117 18.2917 99.7334 18.575C99.5251 18.725 99.1917 18.8917 98.7167 18.8917ZM94.0001 15.4917C94.4084 15.4917 94.8167 15.5917 95.1417 15.7833L97.6334 17.2583C98.3584 17.6917 98.8167 17.6917 98.9917 17.5667C99.1667 17.4417 99.2917 17 99.1084 16.1833L98.5167 13.625C98.3584 12.9333 98.6167 12.0417 99.1167 11.5333L101.183 9.46666C101.592 9.05832 101.775 8.65833 101.692 8.38333C101.6 8.10833 101.217 7.88333 100.65 7.79166L97.9917 7.34999C97.3501 7.24166 96.6501 6.72499 96.3584 6.14166L94.8917 3.20832C94.6251 2.67499 94.2917 2.35832 94.0001 2.35832C93.7084 2.35832 93.3751 2.67499 93.1167 3.20832L91.6417 6.14166C91.3501 6.72499 90.6501 7.24166 90.0084 7.34999L87.3584 7.79166C86.7917 7.88333 86.4084 8.10833 86.3167 8.38333C86.2251 8.65833 86.4167 9.06666 86.8251 9.46666L88.8917 11.5333C89.3917 12.0333 89.6501 12.9333 89.4917 13.625L88.9001 16.1833C88.7084 17.0083 88.8417 17.4417 89.0167 17.5667C89.1917 17.6917 89.6417 17.6833 90.3751 17.2583L92.8667 15.7833C93.1834 15.5917 93.5917 15.4917 94.0001 15.4917Z" fill="#DDA01D"/>
</svg>
