<svg width="23" height="20" viewBox="0 0 23 20" fill="none" xmlns="http://www.w3.org/2000/svg">
<path d="M8.48035 17.225C8.30625 17.225 8.13215 17.1667 7.99471 17.0417C7.72898 16.8 7.72898 16.4 7.99471 16.1583L13.969 10.725C14.4088 10.325 14.4088 9.675 13.969 9.275L7.99471 3.84167C7.72898 3.6 7.72898 3.2 7.99471 2.95833C8.26044 2.71667 8.70026 2.71667 8.96599 2.95833L14.9403 8.39167C15.4076 8.81667 15.6733 9.39167 15.6733 10C15.6733 10.6083 15.4168 11.1833 14.9403 11.6083L8.96599 17.0417C8.82854 17.1583 8.65445 17.225 8.48035 17.225Z" fill="#0095FF"/>
</svg>
