<svg width="20" height="20" viewBox="0 0 20 20" fill="none" xmlns="http://www.w3.org/2000/svg">
<path d="M9.99996 18.0417C9.74163 18.0417 9.49163 18.0083 9.28329 17.9333C6.09996 16.8417 1.04163 12.9667 1.04163 7.24167C1.04163 4.325 3.39996 1.95833 6.29996 1.95833C7.70829 1.95833 9.02496 2.50833 9.99996 3.49167C10.975 2.50833 12.2916 1.95833 13.7 1.95833C16.6 1.95833 18.9583 4.33333 18.9583 7.24167C18.9583 12.975 13.9 16.8417 10.7166 17.9333C10.5083 18.0083 10.2583 18.0417 9.99996 18.0417ZM6.29996 3.20833C4.09163 3.20833 2.29163 5.01667 2.29163 7.24167C2.29163 12.9333 7.76663 16.1 9.69163 16.7583C9.84163 16.8083 10.1666 16.8083 10.3166 16.7583C12.2333 16.1 17.7166 12.9417 17.7166 7.24167C17.7166 5.01667 15.9166 3.20833 13.7083 3.20833C12.4416 3.20833 11.2666 3.8 10.5083 4.825C10.275 5.14167 9.74163 5.14167 9.50829 4.825C8.73329 3.79167 7.56663 3.20833 6.29996 3.20833Z" fill="#0095FF"/>
</svg>
