<svg width="20" height="20" viewBox="0 0 20 20" fill="none" xmlns="http://www.w3.org/2000/svg">
<path d="M6.66675 1.66666V4.16666" stroke="#666666" stroke-width="1.38806" stroke-miterlimit="10" stroke-linecap="round" stroke-linejoin="round"/>
<path d="M13.3335 1.66666V4.16666" stroke="#666666" stroke-width="1.38806" stroke-miterlimit="10" stroke-linecap="round" stroke-linejoin="round"/>
<path d="M2.91675 7.57497H17.0834" stroke="#666666" stroke-width="1.38806" stroke-miterlimit="10" stroke-linecap="round" stroke-linejoin="round"/>
<path d="M18.3334 15.8333C18.3334 16.4583 18.1584 17.05 17.8501 17.55C17.2751 18.5167 16.2168 19.1667 15.0001 19.1667C14.1584 19.1667 13.3918 18.8583 12.8084 18.3333C12.5501 18.1167 12.3251 17.85 12.1501 17.55C11.8417 17.05 11.6667 16.4583 11.6667 15.8333C11.6667 13.9917 13.1584 12.5 15.0001 12.5C16.0001 12.5 16.8918 12.9417 17.5001 13.6333C18.0168 14.225 18.3334 14.9917 18.3334 15.8333Z" stroke="#666666" stroke-width="1.38806" stroke-miterlimit="10" stroke-linecap="round" stroke-linejoin="round"/>
<path d="M13.7002 15.8333L14.5252 16.6583L16.3002 15.0167" stroke="#666666" stroke-width="0.925373" stroke-linecap="round" stroke-linejoin="round"/>
<path d="M17.4998 7.08332V13.6333C16.8914 12.9416 15.9998 12.5 14.9998 12.5C13.1581 12.5 11.6664 13.9917 11.6664 15.8333C11.6664 16.4583 11.8414 17.05 12.1498 17.55C12.3248 17.85 12.5498 18.1167 12.8081 18.3333H6.66642C3.74976 18.3333 2.49976 16.6667 2.49976 14.1667V7.08332C2.49976 4.58332 3.74976 2.91666 6.66642 2.91666H13.3331C16.2498 2.91666 17.4998 4.58332 17.4998 7.08332Z" stroke="#666666" stroke-width="1.38806" stroke-miterlimit="10" stroke-linecap="round" stroke-linejoin="round"/>
<path d="M9.99632 11.4167H10.0038" stroke="#666666" stroke-width="1.38806" stroke-linecap="round" stroke-linejoin="round"/>
<path d="M6.91185 11.4167H6.91933" stroke="#666666" stroke-width="1.38806" stroke-linecap="round" stroke-linejoin="round"/>
<path d="M6.91185 13.9167H6.91933" stroke="#666666" stroke-width="1.38806" stroke-linecap="round" stroke-linejoin="round"/>
</svg>
