<svg width="19" height="20" viewBox="0 0 19 20" fill="none" xmlns="http://www.w3.org/2000/svg">
<path d="M13.4566 18.2898C12.5853 18.2898 11.6676 18.0816 10.7191 17.6806C9.79371 17.2873 8.86063 16.7475 7.95068 16.092C7.04844 15.4289 6.17705 14.6886 5.35192 13.8789C4.53451 13.0537 3.79421 12.1823 3.13874 11.2878C2.47555 10.3624 1.94346 9.43707 1.5656 8.54254C1.16461 7.58632 0.964111 6.66095 0.964111 5.78955C0.964111 5.18806 1.07207 4.61741 1.28028 4.08532C1.4962 3.53781 1.84322 3.02886 2.31361 2.5893C2.90739 2.00323 3.586 1.7102 4.31088 1.7102C4.61162 1.7102 4.92008 1.7796 5.18227 1.90299C5.48302 2.04179 5.73749 2.25 5.92257 2.52761L7.71162 5.04925C7.87356 5.27289 7.99695 5.48881 8.08177 5.70473C8.18202 5.93607 8.236 6.16741 8.236 6.39105C8.236 6.68408 8.15118 6.9694 7.98924 7.2393C7.87356 7.44751 7.6962 7.67115 7.47257 7.89478L6.94819 8.44229C6.9559 8.46542 6.96361 8.48085 6.97133 8.49627C7.06386 8.65821 7.24894 8.93582 7.60366 9.35224C7.98152 9.78408 8.33625 10.1774 8.69098 10.5398C9.14595 10.9871 9.52381 11.3418 9.87854 11.6348C10.3181 12.005 10.6034 12.1901 10.7731 12.2749L10.7576 12.3134L11.3206 11.7582C11.5596 11.5192 11.791 11.3418 12.0146 11.2261C12.4387 10.9639 12.9785 10.9177 13.5183 11.1413C13.7188 11.2261 13.9348 11.3418 14.1661 11.5037L16.7263 13.3236C17.0116 13.5164 17.2198 13.7632 17.3432 14.0562C17.4589 14.3493 17.5129 14.6192 17.5129 14.8891C17.5129 15.2592 17.428 15.6294 17.2661 15.9764C17.1042 16.3234 16.9037 16.6241 16.6492 16.9017C16.2096 17.3876 15.7315 17.7346 15.1763 17.9582C14.6442 18.1741 14.0659 18.2898 13.4566 18.2898ZM4.31088 2.86692C3.88675 2.86692 3.49346 3.05199 3.1156 3.42214C2.76088 3.75373 2.51411 4.11617 2.35988 4.50945C2.19794 4.91045 2.12083 5.33458 2.12083 5.78955C2.12083 6.50672 2.29048 7.28557 2.62978 8.08756C2.9768 8.90498 3.46262 9.75323 4.07953 10.6015C4.69645 11.4498 5.39819 12.2749 6.16934 13.0537C6.94048 13.8172 7.77331 14.5266 8.62928 15.1512C9.46212 15.7604 10.3181 16.254 11.1663 16.6087C12.485 17.1716 13.7188 17.3027 14.7367 16.8786C15.13 16.7167 15.477 16.4699 15.7932 16.1152C15.9706 15.9224 16.1094 15.7142 16.2251 15.4674C16.3176 15.2746 16.3639 15.0741 16.3639 14.8736C16.3639 14.7502 16.3407 14.6269 16.279 14.4881C16.2559 14.4418 16.2096 14.357 16.0631 14.2567L13.5029 12.4368C13.3487 12.3289 13.2099 12.2517 13.0788 12.1978C12.9091 12.1284 12.8397 12.059 12.5775 12.2209C12.4233 12.298 12.2845 12.4137 12.1303 12.5679L11.5442 13.1463C11.2435 13.4393 10.7808 13.5087 10.4261 13.3776L10.2178 13.2851C9.90167 13.1154 9.53152 12.8532 9.12282 12.5062C8.75267 12.1901 8.35167 11.8199 7.86585 11.3418C7.48799 10.9562 7.11013 10.5475 6.71685 10.0925C6.35441 9.66841 6.09222 9.30597 5.93028 9.00522L5.83774 8.77388C5.79147 8.59652 5.77605 8.49627 5.77605 8.38831C5.77605 8.1107 5.8763 7.86393 6.06909 7.67114L6.64744 7.06965C6.80167 6.91542 6.91735 6.76891 6.99446 6.63781C7.05615 6.53756 7.07929 6.45274 7.07929 6.37562C7.07929 6.31393 7.05615 6.22139 7.01759 6.12886C6.96361 6.00547 6.87879 5.86667 6.77083 5.72015L4.98177 3.1908C4.90466 3.08284 4.81212 3.00572 4.69645 2.95174C4.57307 2.89776 4.44197 2.86692 4.31088 2.86692ZM10.7576 12.3211L10.6343 12.8455L10.8425 12.3057C10.8039 12.298 10.7731 12.3057 10.7576 12.3211Z" fill="#666666"/>
<path d="M14.2661 8.26493C13.95 8.26493 13.6878 8.00274 13.6878 7.68657C13.6878 7.40895 13.4102 6.8306 12.9475 6.33706C12.4925 5.85124 11.9913 5.56592 11.5671 5.56592C11.251 5.56592 10.9888 5.30373 10.9888 4.98756C10.9888 4.67139 11.251 4.4092 11.5671 4.4092C12.3151 4.4092 13.1017 4.8102 13.788 5.54279C14.4281 6.2291 14.8445 7.06965 14.8445 7.68657C14.8445 8.00274 14.5823 8.26493 14.2661 8.26493Z" fill="#666666"/>
<path d="M16.9651 8.26493C16.649 8.26493 16.3868 8.00274 16.3868 7.68657C16.3868 5.02612 14.2276 2.86692 11.5671 2.86692C11.251 2.86692 10.9888 2.60473 10.9888 2.28856C10.9888 1.97239 11.251 1.7102 11.5671 1.7102C14.8599 1.7102 17.5435 4.39378 17.5435 7.68657C17.5435 8.00274 17.2813 8.26493 16.9651 8.26493Z" fill="#666666"/>
</svg>
