<svg width="19" height="20" viewBox="0 0 19 20" fill="none" xmlns="http://www.w3.org/2000/svg">
<path d="M13.1096 17.1331H5.39819C2.58351 17.1331 0.964111 15.5137 0.964111 12.699V7.30099C0.964111 4.48632 2.58351 2.86691 5.39819 2.86691H13.1096C15.9243 2.86691 17.5437 4.48632 17.5437 7.30099V12.699C17.5437 15.5137 15.9243 17.1331 13.1096 17.1331ZM5.39819 4.02363C3.19272 4.02363 2.12083 5.09552 2.12083 7.30099V12.699C2.12083 14.9045 3.19272 15.9764 5.39819 15.9764H13.1096C15.3151 15.9764 16.387 14.9045 16.387 12.699V7.30099C16.387 5.09552 15.3151 4.02363 13.1096 4.02363H5.39819Z" fill="#666666"/>
<path d="M9.25355 10.6709C8.60579 10.6709 7.95032 10.4704 7.44908 10.0617L5.03539 8.13381C4.78862 7.93331 4.74236 7.57087 4.94286 7.32411C5.14335 7.07734 5.50579 7.03107 5.75256 7.23157L8.16623 9.15943C8.7523 9.62983 9.74708 9.62983 10.3331 9.15943L12.7468 7.23157C12.9936 7.03107 13.3638 7.06963 13.5565 7.32411C13.757 7.57087 13.7185 7.94102 13.464 8.13381L11.0503 10.0617C10.5568 10.4704 9.90131 10.6709 9.25355 10.6709Z" fill="#666666"/>
</svg>
