<svg width="19" height="20" viewBox="0 0 19 20" fill="none" xmlns="http://www.w3.org/2000/svg">
<path d="M13.5415 14.6037H4.96635C1.8972 14.6037 0.964111 13.6706 0.964111 10.6015V5.71244C0.964111 2.64328 1.8972 1.7102 4.96635 1.7102H13.5338C16.6029 1.7102 17.536 2.64328 17.536 5.71244V10.5938C17.5437 13.6706 16.6106 14.6037 13.5415 14.6037ZM4.96635 2.86692C2.54496 2.86692 2.12083 3.29105 2.12083 5.71244V10.5938C2.12083 13.0152 2.54496 13.4393 4.96635 13.4393H13.5338C15.9552 13.4393 16.3793 13.0152 16.3793 10.5938V5.71244C16.3793 3.29105 15.9552 2.86692 13.5338 2.86692H4.96635Z" fill="#666666"/>
<path d="M9.25365 18.2898C8.93748 18.2898 8.67529 18.0276 8.67529 17.7114V14.0254C8.67529 13.7092 8.93748 13.447 9.25365 13.447C9.56982 13.447 9.83201 13.7092 9.83201 14.0254V17.7114C9.83201 18.0276 9.56982 18.2898 9.25365 18.2898Z" fill="#666666"/>
<path d="M16.9654 11.3495H1.54247C1.2263 11.3495 0.964111 11.0873 0.964111 10.7711C0.964111 10.455 1.2263 10.1928 1.54247 10.1928H16.9654C17.2815 10.1928 17.5437 10.455 17.5437 10.7711C17.5437 11.0873 17.2815 11.3495 16.9654 11.3495Z" fill="#666666"/>
<path d="M12.724 18.2898H5.78368C5.46751 18.2898 5.20532 18.0276 5.20532 17.7114C5.20532 17.3953 5.46751 17.1331 5.78368 17.1331H12.724C13.0401 17.1331 13.3023 17.3953 13.3023 17.7114C13.3023 18.0276 13.0401 18.2898 12.724 18.2898Z" fill="#666666"/>
</svg>
