<svg width="21" height="21" viewBox="0 0 21 21" fill="none" xmlns="http://www.w3.org/2000/svg">
<path d="M10.6016 18.5417C10.3433 18.5417 10.0933 18.5083 9.88498 18.4333C6.70164 17.3417 1.64331 13.4667 1.64331 7.74166C1.64331 4.82499 4.00164 2.45833 6.90164 2.45833C8.30998 2.45833 9.62664 3.00833 10.6016 3.99166C11.5766 3.00833 12.8933 2.45833 14.3016 2.45833C17.2016 2.45833 19.56 4.83333 19.56 7.74166C19.56 13.475 14.5016 17.3417 11.3183 18.4333C11.11 18.5083 10.86 18.5417 10.6016 18.5417ZM6.90164 3.70833C4.69331 3.70833 2.89331 5.51666 2.89331 7.74166C2.89331 13.4333 8.36831 16.6 10.2933 17.2583C10.4433 17.3083 10.7683 17.3083 10.9183 17.2583C12.835 16.6 18.3183 13.4417 18.3183 7.74166C18.3183 5.51666 16.5183 3.70833 14.31 3.70833C13.0433 3.70833 11.8683 4.29999 11.11 5.32499C10.8766 5.64166 10.3433 5.64166 10.11 5.32499C9.33498 4.29166 8.16831 3.70833 6.90164 3.70833Z" fill="#0095FF"/>
</svg>
