<svg width="20" height="21" viewBox="0 0 20 21" fill="none" xmlns="http://www.w3.org/2000/svg">
<path d="M10.0582 18.8167C8.88316 18.8167 7.69983 18.3667 6.80816 17.475L3.03316 13.7C2.1165 12.7833 1.63316 11.5167 1.6915 10.225L1.8915 6.05833C1.98316 4.06666 3.55816 2.49166 5.55816 2.39166L9.72483 2.19166C11.0165 2.14166 12.2832 2.61666 13.1998 3.53333L16.9748 7.30833C18.7665 9.09999 18.7665 12.025 16.9748 13.8167L13.3165 17.475C12.4165 18.3667 11.2415 18.8167 10.0582 18.8167ZM3.9165 12.8083L7.6915 16.5833C8.32483 17.2167 9.1665 17.5667 10.0582 17.5667C10.9498 17.5667 11.7915 17.2167 12.4248 16.5833L16.0832 12.925C16.7165 12.2917 17.0665 11.45 17.0665 10.5583C17.0665 9.66666 16.7165 8.82499 16.0832 8.19166L12.3082 4.41666C11.6415 3.74999 10.7165 3.39166 9.78316 3.44166L5.6165 3.64166C4.25816 3.69999 3.19983 4.75833 3.13316 6.10833L2.93316 10.275C2.8915 11.2167 3.24983 12.1417 3.9165 12.8083Z" fill="#666666"/>
<path d="M7.91683 11.125C6.42516 11.125 5.2085 9.90834 5.2085 8.41668C5.2085 6.92501 6.42516 5.70834 7.91683 5.70834C9.4085 5.70834 10.6252 6.92501 10.6252 8.41668C10.6252 9.90834 9.4085 11.125 7.91683 11.125ZM7.91683 6.95834C7.11683 6.95834 6.4585 7.61668 6.4585 8.41668C6.4585 9.21668 7.11683 9.87501 7.91683 9.87501C8.71683 9.87501 9.37516 9.21668 9.37516 8.41668C9.37516 7.61668 8.71683 6.95834 7.91683 6.95834Z" fill="#666666"/>
</svg>
