<svg width="104" height="20" viewBox="0 0 104 20" fill="none" xmlns="http://www.w3.org/2000/svg">
<path d="M11.4416 2.92492L12.9083 5.85825C13.1083 6.26659 13.6416 6.65825 14.0916 6.73325L16.7499 7.17492C18.4499 7.45825 18.8499 8.69159 17.6249 9.90825L15.5583 11.9749C15.2083 12.3249 15.0166 12.9999 15.1249 13.4833L15.7166 16.0416C16.1833 18.0666 15.1083 18.8499 13.3166 17.7916L10.8249 16.3166C10.3749 16.0499 9.63326 16.0499 9.17493 16.3166L6.68326 17.7916C4.89992 18.8499 3.81659 18.0583 4.28326 16.0416L4.87492 13.4833C4.98326 12.9999 4.79159 12.3249 4.44159 11.9749L2.37492 9.90825C1.15826 8.69159 1.54992 7.45825 3.24992 7.17492L5.90826 6.73325C6.34992 6.65825 6.88326 6.26659 7.08326 5.85825L8.54993 2.92492C9.34993 1.33325 10.6499 1.33325 11.4416 2.92492Z" fill="#DDA01D"/>
<path d="M32.4416 2.92492L33.9083 5.85825C34.1083 6.26659 34.6416 6.65825 35.0916 6.73325L37.7499 7.17492C39.4499 7.45825 39.8499 8.69159 38.6249 9.90825L36.5583 11.9749C36.2083 12.3249 36.0166 12.9999 36.1249 13.4833L36.7166 16.0416C37.1833 18.0666 36.1083 18.8499 34.3166 17.7916L31.8249 16.3166C31.3749 16.0499 30.6333 16.0499 30.1749 16.3166L27.6833 17.7916C25.8999 18.8499 24.8166 18.0583 25.2833 16.0416L25.8749 13.4833C25.9833 12.9999 25.7916 12.3249 25.4416 11.9749L23.3749 9.90825C22.1583 8.69159 22.5499 7.45825 24.2499 7.17492L26.9083 6.73325C27.3499 6.65825 27.8833 6.26659 28.0833 5.85825L29.5499 2.92492C30.3499 1.33325 31.6499 1.33325 32.4416 2.92492Z" fill="#DDA01D"/>
<path d="M53.4416 2.92492L54.9083 5.85825C55.1083 6.26659 55.6416 6.65825 56.0916 6.73325L58.7499 7.17492C60.4499 7.45825 60.8499 8.69159 59.6249 9.90825L57.5583 11.9749C57.2083 12.3249 57.0166 12.9999 57.1249 13.4833L57.7166 16.0416C58.1833 18.0666 57.1083 18.8499 55.3166 17.7916L52.8249 16.3166C52.3749 16.0499 51.6333 16.0499 51.1749 16.3166L48.6833 17.7916C46.8999 18.8499 45.8166 18.0583 46.2833 16.0416L46.8749 13.4833C46.9833 12.9999 46.7916 12.3249 46.4416 11.9749L44.3749 9.90825C43.1583 8.69159 43.5499 7.45825 45.2499 7.17492L47.9083 6.73325C48.3499 6.65825 48.8833 6.26659 49.0833 5.85825L50.5499 2.92492C51.3499 1.33325 52.6499 1.33325 53.4416 2.92492Z" fill="#DDA01D"/>
<path d="M74.4416 2.92492L75.9083 5.85825C76.1083 6.26659 76.6416 6.65825 77.0916 6.73325L79.7499 7.17492C81.4499 7.45825 81.8499 8.69159 80.6249 9.90825L78.5583 11.9749C78.2083 12.3249 78.0166 12.9999 78.1249 13.4833L78.7166 16.0416C79.1833 18.0666 78.1083 18.8499 76.3166 17.7916L73.8249 16.3166C73.3749 16.0499 72.6333 16.0499 72.1749 16.3166L69.6833 17.7916C67.8999 18.8499 66.8166 18.0583 67.2833 16.0416L67.8749 13.4833C67.9833 12.9999 67.7916 12.3249 67.4416 11.9749L65.3749 9.90825C64.1583 8.69159 64.5499 7.45825 66.2499 7.17492L68.9083 6.73325C69.3499 6.65825 69.8833 6.26659 70.0833 5.85825L71.5499 2.92492C72.3499 1.33325 73.6499 1.33325 74.4416 2.92492Z" fill="#DDA01D"/>
<path d="M95.4416 2.92492L96.9083 5.85825C97.1083 6.26659 97.6416 6.65825 98.0916 6.73325L100.75 7.17492C102.45 7.45825 102.85 8.69159 101.625 9.90825L99.5583 11.9749C99.2083 12.3249 99.0166 12.9999 99.1249 13.4833L99.7166 16.0416C100.183 18.0666 99.1083 18.8499 97.3166 17.7916L94.8249 16.3166C94.3749 16.0499 93.6333 16.0499 93.1749 16.3166L90.6833 17.7916C88.8999 18.8499 87.8166 18.0583 88.2833 16.0416L88.8749 13.4833C88.9833 12.9999 88.7916 12.3249 88.4416 11.9749L86.3749 9.90825C85.1583 8.69159 85.5499 7.45825 87.2499 7.17492L89.9083 6.73325C90.3499 6.65825 90.8833 6.26659 91.0833 5.85825L92.5499 2.92492C93.3499 1.33325 94.6499 1.33325 95.4416 2.92492Z" fill="#DDA01D"/>
</svg>
