<svg width="24" height="24" viewBox="0 0 24 24" fill="none" xmlns="http://www.w3.org/2000/svg">
<path d="M16.4624 21.0523H5.74656C3.21104 21.0523 1.15671 18.9887 1.15671 16.4532V9.59616C1.15671 8.33765 1.93402 6.75526 2.93342 5.97795L7.92119 2.09138C9.42029 0.925411 11.817 0.869889 13.3716 1.96183L19.0904 5.96869C20.1916 6.73675 21.0522 8.38392 21.0522 9.72571V16.4624C21.0522 18.9887 18.9979 21.0523 16.4624 21.0523ZM8.77253 3.18332L3.78477 7.06989C3.12775 7.5881 2.54477 8.76332 2.54477 9.59616V16.4532C2.54477 18.2206 3.9791 19.6642 5.74656 19.6642H16.4624C18.2298 19.6642 19.6642 18.2299 19.6642 16.4624V9.72571C19.6642 8.83735 19.0257 7.60661 18.2946 7.1069L12.5758 3.10004C11.5209 2.35974 9.78119 2.39675 8.77253 3.18332Z" fill="#666666"/>
<path d="M11.1045 17.3507C10.7251 17.3507 10.4105 17.0361 10.4105 16.6567V13.8806C10.4105 13.5012 10.7251 13.1865 11.1045 13.1865C11.4839 13.1865 11.7985 13.5012 11.7985 13.8806V16.6567C11.7985 17.0361 11.4839 17.3507 11.1045 17.3507Z" fill="#666666"/>
</svg>
